<svg width="200" height="200" viewBox="0 0 200 200" fill="none" xmlns="http://www.w3.org/2000/svg">
  <!-- Optimized bee-medic logo - reduced from 1.8MB to ~3KB -->
  <g transform="translate(100, 100)">
    <!-- Outer Circle -->
    <circle cx="0" cy="0" r="90" stroke="#C9A961" stroke-width="2" fill="none"/>
    
    <!-- Bee Body -->
    <g id="bee-medic-compact" transform="scale(0.75)">
        <!-- Head -->
        <path d="M 0 -60 L 15 -50 L -15 -50 Z" stroke="#C9A961" stroke-width="2.66" fill="none"/>
        <circle cx="0" cy="-45" r="10" stroke="#C9A961" stroke-width="2.66" fill="none"/>
        
        <!-- Antennae -->
        <line x1="-10" y1="-55" x2="-20" y2="-70" stroke="#C9A961" stroke-width="2.66"/>
        <line x1="10" y1="-55" x2="20" y2="-70" stroke="#C9A961" stroke-width="2.66"/>
        
        <!-- Thorax -->
        <path d="M -25 -35 L 25 -35 L 35 -10 L -35 -10 Z" stroke="#C9A961" stroke-width="2.66" fill="none"/>
        
        <!-- Abdomen -->
        <path d="M -35 -10 L 35 -10 L 20 30 L 0 45 L -20 30 Z" stroke="#C9A961" stroke-width="2.66" fill="none"/>
        
        <!-- Body Stripes -->
        <line x1="-30" y1="-22" x2="30" y2="-22" stroke="#C9A961" stroke-width="2.66"/>
        <line x1="-35" y1="-10" x2="35" y2="-10" stroke="#C9A961" stroke-width="2.66"/>
        <line x1="-28" y1="5" x2="28" y2="5" stroke="#C9A961" stroke-width="2.66"/>
        <line x1="-22" y1="20" x2="22" y2="20" stroke="#C9A961" stroke-width="2.66"/>

        <!-- Left Wing -->
        <g id="left-wing">
          <path d="M -25, -30 L -90, -50 L -80, -10 Z" stroke="#C9A961" stroke-width="2.66" fill="none"/>
          <path d="M -80, -10 L -70, 10 L -28, -5 Z" stroke="#C9A961" stroke-width="2.66" fill="none"/>
          <line x1="-40" y1="-25" x2="-70" y2="-35" stroke="#C9A961" stroke-width="2"/>
          <line x1="-70" y1="-35" x2="-75" y2="-20" stroke="#C9A961" stroke-width="2"/>
          <line x1="-45" y1="-15" x2="-65" y2="0" stroke="#C9A961" stroke-width="2"/>
        </g>
        
        <!-- Right Wing -->
        <g id="right-wing">
          <path d="M 25, -30 L 90, -50 L 80, -10 Z" stroke="#C9A961" stroke-width="2.66" fill="none"/>
          <path d="M 80, -10 L 70, 10 L 28, -5 Z" stroke="#C9A961" stroke-width="2.66" fill="none"/>
          <line x1="40" y1="-25" x2="70" y2="-35" stroke="#C9A961" stroke-width="2"/>
          <line x1="70" y1="-35" x2="75" y2="-20" stroke="#C9A961" stroke-width="2"/>
          <line x1="45" y1="-15" x2="65" y2="0" stroke="#C9A961" stroke-width="2"/>
        </g>
        
        <!-- Legs -->
        <g id="legs">
          <path d="M -20,0 L -40, 20 L -35, 40" stroke="#C9A961" stroke-width="2.66" fill="none"/>
          <path d="M -25,-5 L -50, 10 L -45, 30" stroke="#C9A961" stroke-width="2.66" fill="none"/>
          <path d="M -28,-15 L -60, -5 L -55, 15" stroke="#C9A961" stroke-width="2.66" fill="none"/>
          <path d="M 20,0 L 40, 20 L 35, 40" stroke="#C9A961" stroke-width="2.66" fill="none"/>
          <path d="M 25,-5 L 50, 10 L 45, 30" stroke="#C9A961" stroke-width="2.66" fill="none"/>
          <path d="M 28,-15 L 60, -5 L 55, 15" stroke="#C9A961" stroke-width="2.66" fill="none"/>
        </g>
    </g>
  </g>
</svg>
