<svg width="32" height="32" viewBox="0 0 32 32" fill="none" xmlns="http://www.w3.org/2000/svg">
  <!-- Favicon - simplified bee icon -->
  <g transform="translate(16, 16)">
    <!-- Outer Circle -->
    <circle cx="0" cy="0" r="14" stroke="#C9A961" stroke-width="1" fill="none"/>
    
    <!-- Bee Body - Simplified -->
    <g id="bee">
      <!-- Head -->
      <circle cx="0" cy="-6" r="2" stroke="#C9A961" stroke-width="0.8" fill="none"/>
      
      <!-- Antennae -->
      <line x1="-1.5" y1="-7.5" x2="-2.5" y2="-10" stroke="#C9A961" stroke-width="0.8"/>
      <line x1="1.5" y1="-7.5" x2="2.5" y2="-10" stroke="#C9A961" stroke-width="0.8"/>
      <circle cx="-2.5" cy="-10" r="0.8" fill="#C9A961"/>
      <circle cx="2.5" cy="-10" r="0.8" fill="#C9A961"/>
      
      <!-- Body -->
      <path d="M -2,-4 L 2,-4 L 2.5,0 L -2.5,0 Z" stroke="#C9A961" stroke-width="0.8" fill="none"/>
      <line x1="-2" y1="-2" x2="2" y2="-2" stroke="#C9A961" stroke-width="0.8"/>
      
      <path d="M -2.5,0 L 2.5,0 L 2,4 L -2,4 Z" stroke="#C9A961" stroke-width="0.8" fill="none"/>
      <line x1="-2" y1="2" x2="2" y2="2" stroke="#C9A961" stroke-width="0.8"/>
      
      <!-- Stinger -->
      <path d="M -1,4 L 0,6 L 1,4" stroke="#C9A961" stroke-width="0.8" fill="none"/>
      
      <!-- Wings - Simplified -->
      <path d="M -2,-2 L -10,-1 L -8,2 Z" stroke="#C9A961" stroke-width="0.8" fill="none"/>
      <line x1="-2" y1="-2" x2="-8" y2="2" stroke="#C9A961" stroke-width="0.8"/>
      
      <path d="M 2,-2 L 10,-1 L 8,2 Z" stroke="#C9A961" stroke-width="0.8" fill="none"/>
      <line x1="2" y1="-2" x2="8" y2="2" stroke="#C9A961" stroke-width="0.8"/>
      
      <!-- Legs - Simplified -->
      <line x1="-2" y1="1" x2="-5" y2="5" stroke="#C9A961" stroke-width="0.8"/>
      <line x1="2" y1="1" x2="5" y2="5" stroke="#C9A961" stroke-width="0.8"/>
      <line x1="-1" y1="3" x2="-4" y2="7" stroke="#C9A961" stroke-width="0.8"/>
      <line x1="1" y1="3" x2="4" y2="7" stroke="#C9A961" stroke-width="0.8"/>
    </g>
  </g>
</svg>
