<svg xmlns="http://www.w3.org/2000/svg" width="2282.7" height="4938.7" viewBox="0 0 1712 3704"><path d="M0 1852v1852h1712V0H0zm945.8-867.1c1.1.6 1.4 4.5 1.5 16.5 0 8.6-.3 15.9-.6 16.3-.4.3-.7-2.5-.7-6.4 0-8.7-.8-9.5-7.9-8.4-5.9.9-6.5 1.5-8.6 8.6-.8 2.8-2.4 5.6-3.6 6.3-2.9 1.8-3.9.5-1.3-1.6 1.2-.9 2.7-3.5 3.4-5.7s1.6-4.4 2.1-5c1.5-1.5 1-3.6-1.1-5.3-1.1-1-2.3-3.4-2.7-5.4q-1.6-10.5 13.7-10.7c2.5 0 5.1.3 5.8.8m-781.3 7.6c2.7 4.1 5.4 7.5 6 7.5a32 32 0 0 0 6-7.5c2.8-4.1 5.3-7.4 5.8-7.5s.7 7.5.7 16.6q0 16.6-1 15.9c-.7-.4-1-4.7-.9-10.8.3-18.3 0-18.9-5.5-10.3-1.9 3-3.9 5.7-4.5 6-.5.4-3.1-2.4-5.8-6.1l-4.8-6.8-.3 14c-.4 20.7-2.2 19.6-2.2-1.3 0-9.5.4-17.2.8-17.2s3 3.4 5.7 7.5m95.9-6.5c-.5.5-5.4 1.1-10.9 1.2l-10 .3v11l7.5.6q13.5.9-.5 1.2l-7 .2v16l11 .5c13.9.6 11.7 2.2-2.6 1.8l-10.4-.3-.3-15.5c-.1-8.5 0-16 .2-16.7.4-1 3.6-1.3 12.3-1.3 7.5 0 11.4.3 10.7 1m73.6 14.2c0 12.4.3 15.5 1.6 16.9a5 5 0 0 1 1.1 4.1l-.4 2.3-.8-2.3c-.7-2.1-1.2-2.2-12.1-2.2-10.7 0-11.4.1-11.4 2q0 1.8-1 2c-1.8 0-1-4.7 1-6.1 2.1-1.5 5.2-13.8 6.5-26.2l.6-5.7H334zm79 1.5c0 9.1-.3 16.4-.6 16.1s-.5-5.7-.5-11.9c0-11.7-.4-14.9-1.9-14.9-.4 0-4.8 6.1-9.6 13.5a88 88 0 0 1-10.1 13.5c-1 0-1.3-3.8-1.3-16 0-10 .4-16 1-16s1 5.2 1 13.5c0 7.4.4 13.5.9 13.5s5.1-6.3 10.2-14 9.7-14 10.1-14 .8 7.5.8 16.7m132-2.1c0 7.4.3 13.4.8 13.4s4.9-6.3 10.1-14 9.8-14 10.3-14 .8 7.4.8 16.5c0 10.3-.4 16.5-1 16.5s-1-5.4-1-14.1c0-8.5-.4-13.8-.9-13.4-.6.3-4.7 6.1-9.2 12.8-12.8 19.1-11.9 19.2-11.9-1.1q0-17.1 1-16.7c.6.4 1 6.2 1 14.1m100 11.1-.7 8.8-.2-8c-.1-4.4-.5-8.6-.9-9.3-.6-.9-3.4-1.2-10.3-1l-9.4.3-.3 8.2c-.2 4.6-.7 8.3-1.2 8.3s-1-6.4-1-16c0-10 .4-16 1-16s1 2.8 1 6.5c0 6.1.2 6.5 2.3 6.6 19.2.7 18.7.9 18.8-7.8l.2-6.8.7 8.7c.4 4.9.4 12.7 0 17.5m76.1-24.7q1.9 1.2 1.9 3.8c-.1 2.5-.1 2.6-1.2.7-1.7-3.1-2.8-3.5-9.8-3.5-10.5 0-11 .7-11 15 0 14.5.4 15 11.7 15 7 0 7.4-.1 8.4-2.6 1.2-3.2 2.4-2.5 1.5.9-.7 2.8-3 3.7-9.6 3.7-7.1 0-11.9-1.7-13-4.6a81 81 0 0 1 .1-25.5c.6-1.1 2-2.4 3.2-2.9a44 44 0 0 1 17.8 0m148 15.5c6.2 17.1 6.4 17.5 5 17.5-.5 0-1.7-2.4-2.7-5.3l-1.9-5.2-7.8-.3-7.7-.3-2.5 5.7c-1.4 3.1-2.8 5.4-3.1 5.1q-.9-.8 10.7-31.5c1.9-5 4-2 10 14.3m286.7.2q.3 16.2-.8 16.3c-.6 0-1-5.1-1-13.9 0-7.7-.3-14.6-.6-15.5-.5-1.2-2.1-1.6-7.4-1.6s-6.9.4-7.4 1.6c-.3.9-.6 7.2-.6 14 0 11.1-.2 12.6-2 14.4-2 2-4 2.6-4 1.2q.2-.8 2-2c1.8-1.1 2-2.3 2-15.2 0-16.5-.3-16.1 11.5-15.7l8 .2zm78.2.4c0 9.9-.4 15.9-1 15.9s-1-5.2-1-13.5c0-10.1-.3-13.5-1.2-13.5-.7 0-5.3 6.1-10.3 13.5a74 74 0 0 1-10.2 13.5c-1 0-1.3-3.6-1.3-16 0-10 .4-16 1-16s1 5.2 1 13.6c0 10.4.3 13.5 1.3 13.2.6-.3 5.4-6.6 10.5-14.1a64 64 0 0 1 10.3-13.2c.5.4.9 7.8.9 16.6m55.8-8.1-.3 4.5 9.8.5c5.4.3 10.1.3 10.3.1s.4-3.3.4-6.7.5-6.6 1-6.9c.7-.4 1 5.2 1 15.9 0 9.9-.4 16.6-1 16.6s-1-3.7-1.2-8.3l-.3-8.2-8.8-.3c-5.1-.2-9.4.2-10.1.7q-1.2 1.2-1.1 6.8a26 26 0 0 1-.6 7.8c-.4 1.1-.8-5.6-.8-15 0-12.3.3-16.3 1-14.5.6 1.4.9 4.5.7 7m100.5 7.5c0 8.5-.3 15.8-.6 16.2-.4.3-.7-5.5-.7-13 0-10.3-.3-13.7-1.2-13.7a81 81 0 0 0-10.7 14 82 82 0 0 1-10.2 13.4c-1.1-.7-1.1-31.1 0-31.9.7-.4 1.1 4.2 1.3 12.7.2 7.3.7 13.3 1.2 13.3s4.2-5 8.3-11c10.1-15 11.4-16.7 12-16.1.3.3.6 7.5.6 16.1m142-13.8c1.1 2.2 9.6 24.6 10.9 28.8q.2.9-.6 1.5c-.5.3-1.7-1.8-2.6-4.5l-1.7-5-8-.3-8.1-.3-1.7 5c-1.6 4.9-3.5 7.6-3.5 4.9 0-.7 2.1-6.7 4.6-13.3l5.4-14.7c1.8-5.7 3.2-6.2 5.3-2.1m-1054.8 28.8h8l.3-14c.4-19.1 2.2-20.3 2.2-1.3 0 11.7.3 14.8 1.5 15.8a5 5 0 0 1 1.5 3.3c0 1.9-.1 1.9-1.2.4-1.1-1.3-3.4-1.7-11.8-1.9l-10.5-.3-.3-14.5c-.1-7.9.1-15.1.5-16 .4-.8 1 5.2 1.3 13.5l.5 15zm301.8-14.7c3.9.8 6.3-.8 9.6-6.4 3.4-5.5 7.5-9.3 8.8-8q.4.6-1.5 2.2a44 44 0 0 0-9.2 13.5c0 1.6 7.8 12.7 9.7 13.8q1.6.9 1.1 1.6c-1.2 1.2-4.7-2-8.5-7.7-3.6-5.7-6.1-7.4-10-6.6-1.5.3-1.9 1.6-2.3 7.8-.5 6.7-.6 7-1 3-.3-2.5-.3-9.9 0-16.5.4-11.6.4-11.7 1-4.5.4 6.2.8 7.5 2.3 7.8m300-12.1c-4.4 4-9.9 13.2-8.7 14.8l3.8 5.6c1.5 2.4 3.8 5.2 5 6.1 1.1.9 1.7 2 1.3 2.4-1 1.1-4.5-2.4-8.4-8.3q-5-7.8-9.8-5.9c-1.1.4-1.5 2.1-1.5 6.5 0 3.3-.4 6.3-1 6.6-.6.4-1-4.7-1-14.4q0-15.1 1.1-15.1c.6 0 1 1.8.9 4.2-.4 9.9-.4 10 3.7 9.6 3.4-.3 4.2-.9 8-6.7 4.3-6.6 5.8-8.1 8.3-8.1q1.2.2-1.7 2.7m367 2.5c-.3 1.5-.2 4.3.1 6.3.6 3.2 1 3.5 4 3.5s3.8-.7 7.7-6.7a44 44 0 0 1 6.1-7.7c2.6-1.6 3.5.2 1 2a42 42 0 0 0-9.2 13.6c0 1.7 6.8 11.6 9.2 13.2q2 1.5 1.6 2.2c-1.2 1.1-4.9-2.3-8.6-7.8-4.1-6.2-4.8-6.8-8.3-6.8-3 0-3.9 2.6-3.9 10.7q0 4.2-1 3.8c-1.1-.7-1.4-29.7-.3-30.8 1.2-1.2 2.2 1.6 1.6 4.5M888.5 1352c17.2 2.4 38 6.7 50.9 10.4a65 65 0 0 0 12.4 2.6q3.5 0 5.8 2.1c1.2 1.1 6.1 3.5 11 5.3a346 346 0 0 1 114.8 73.8 420 420 0 0 1 45.6 54.7c2.2 3 4.2 6.2 4.5 7.3.6 1.5 1.7 1.8 8.7 1.8 4.5 0 7.9.2 7.7.4-.6.7-15.9 1.4-42.9 2.1-12.9.3-24.5.8-25.7 1.1-3.1.6-2.9 2.8.8 8.6 2.9 4.5 3.4 7.7.7 5q-2.7-2.7-2.8 1c0 1.3 3.8 14 8.5 28.3l18.3 56c8.6 26.1 10.1 30 12 30.3 1.7.3 2.6-.8 4.8-5 1.4-2.9 3.7-6.7 5-8.5s2.4-3.4 2.4-3.7 2-4.2 4.5-8.7 4.5-9.1 4.5-10.3-4.7-8.7-10.5-16.7c-19.3-26.7-33-45.2-35.6-48.3-3.3-4-7.3-10.6-6.7-11.1.4-.5 4.3 4.5 19.3 25l11.5 15.5c1.5 1.9 4.4 6 6.5 9 3.5 5.1 9 12.3 14.2 18.8 1.9 2.4 2.3 2.5 3.6 1.2.8-.8 2-4.4 2.6-8l3.6-17c1.3-5.8 4.2-20 6.4-31.5a665 665 0 0 1 5.3-25.4c1-3.9.9-4.5-.7-5.7-1-.8-3.3-1.5-4.9-1.5q-3-.2 2.4-1c3-.4 6.3-.6 7.3-.3 1.8.6 1.8.7-.1 2.7a37 37 0 0 0-4 13.7c-1.1 6.3-4.6 23.8-7.6 38.7a505 505 0 0 0-5.6 29.8c0 5.4.5 5 31.5-28.4l13.1-14 13-14 9.9-10.5a63 63 0 0 0 12.5-15.9q-.1-1.5-1.7-2.5c-1.4-.9-1.4-1 .6-1.7 2.7-.8 7.1.1 7.1 1.6 0 .6-1.3 4.1-2.9 7.7a369 369 0 0 0-6.6 16.7 79 79 0 0 1-5.5 13.2c0 1.3-7.3 20.6-10.1 26.7-1.1 2.4-4.5 4.4-19.8 11.8-17.3 8.3-18.3 9-16.4 10.3s6.1 16.4 10.2 37.5a400 400 0 0 1 2.7 94 340 340 0 0 1-125.1 229.1 339 339 0 0 1-142.9 68.4 281 281 0 0 1-71.1 7c-31.3 0-38.1-.6-64.5-5.6a334 334 0 0 1-119.5-47.7 357 357 0 0 1-84.9-77.2 339 339 0 0 1-70.3-169.2c-2.2-16.6-2.5-65-.5-79.8 3.9-28.1 9.9-54.3 12.9-56.6 1.4-.9-1.4-2.6-16.9-10.2a101 101 0 0 1-19.7-11 91 91 0 0 1-3.7-9.4 825 825 0 0 0-12.5-32.3l-2.9-7.3-4.1-10.3c-2.4-6.1-2-7.9 1.8-7.8 3.3.1 7.9 1.7 5.2 1.8-.9.1-2.2.8-2.9 1.6-1 1.2-.7 2.2 1.6 5.2 1.5 2 4 4.8 5.5 6.2 5.9 5.8 36.1 39.2 35.7 39.6-.2.2-2-1.2-4-3.3l-9.2-9.4a49 49 0 0 1-5.6-6.4c0-.3-1.9-2.5-4.2-4.8s-6.7-6.8-9.6-10-5.8-5.6-6.5-5.4c-2 .7-1.9 4.3.2 8.9 2 4.4 11 27.6 13.8 35.9 2.6 7.5.2 6 37.5 23.9 12.7 6.1 16.8 7.2 16.8 4.8 0-.6-5.7-7.4-12.6-15-7-7.6-12.4-14-12.1-14.3.5-.6.2-.9 12.7 12.6 15.7 17.1 17 18.2 18.7 16.8q1.4-1.2 1-4.2c-.7-4.8-5.4-28.4-7.2-36.1-.9-3.9-2.5-11.8-3.5-17.8l-2.6-13.5q-.6-2.4 0-2c1 .8 1.9 4.7 5.6 23.8 3.2 15.9 4.4 21.7 8 37.6 1.1 5 2 10.1 2 11.2s.8 2.9 1.8 4.1c1.4 1.9 2 2 3.4.9a613 613 0 0 0 26.6-35.7l2.7-3.5c.6-.6 5-6.5 9.8-13.1 11-15.2 12.7-17.3 12.7-15.9a47 47 0 0 1-7.9 12.1l-7.9 10.5-19.7 26.8a528 528 0 0 0-16.2 22.7c-2 3.7-2.4 2.8 10.7 25.3 10.3 17.7 10.8 17.8 15.9 2.3 3.7-11.3 5.9-15.8 4.6-9.3-.4 1.9-2 7.4-3.6 12.2-3.3 9.8-3.6 13.3-1.3 14.2 1.9.7 27.1 2.3 49.4 3.1l25.1 1.1c7.3.4 8.9.3 10.3-1.2q1.6-1.7 1-3.3l-6.7-19.1-7.9-22.9c-1-2.9-1.7-5.6-1.4-5.9q.6-.3 1 .9a470 470 0 0 0 18.7 49.4c1.8 1.9 2.1 1.9 6.1.3l18.3-7.1c15.9-6.1 30.9-12 37.5-14.7l13.3-5.4c4.9-2 9.5-3.6 10.2-3.6 1.7 0 4.5-2.8 4.5-4.5 0-1-15.2-12.4-37.3-27.9a1109 1109 0 0 1-33.2-23.8l-8.6-6-10.5-7.5-14.9-10.7c-18.5-13.3-28-19.6-29.7-19.6-2.3 0-2.3 3.1-.2 7.1a10 10 0 0 1 1.1 4.7q-.3 2-1.5-.8c-.6-1.4-1.3-3.8-1.7-5.3-.7-3.3-3.1-4.6-4.9-2.6-.7.8-4.4 10.8-8.1 22.4-9.4 29.1-11.8 36-12.3 34.7-.2-.7 1-5.4 2.7-10.5l5.5-16.5c1.3-4 2.6-7.6 3-7.9q.5-.7.6-2.2c0-.8 1-4.6 2.2-8.4 1.6-5.1 1.8-7.1 1-7.9s-1.8-.6-3.7 1.2q-5.4 5.2 1.6-5.2c6.4-9.4 7.1-9.2-24.7-10.1-14.8-.4-31.2-1.1-36.4-1.6l-9.5-.8 10.3-.2q10.1-.2 10.2-1.2a278 278 0 0 1 21.4-31.2 395 395 0 0 1 58.4-57.5c4.3-3.8 29.9-20.6 40.2-26.4a388 388 0 0 1 43.8-21c6.3-2.5 10.7-4.8 11.3-6 .9-1.6 1.8-1.9 4.7-1.6 2.4.3 7.1-.6 13-2.4 17-5.3 52.6-11.6 74.2-13.2 13.6-1 50 .4 64.5 2.4m-380 157c9.7.7 9.6.7-5.5.7-8.5 0-20-.3-25.5-.7-9.7-.7-9.6-.7 5.5-.7 8.5 0 20 .3 25.5.7m703.5 0c-6.3.4-17.8.7-25.5.7-13.4-.1-13.6-.1-4.5-.7 5.2-.3 16.7-.6 25.5-.6l16-.1zm-681.7.9c1.7.6 1.7.8-.2 2.5s-2.1 1.7-3.6.2a7 7 0 0 0-2.8-1.7c-1.4-.1 2.3-1.8 3.8-1.8q1.1.1 2.8.8m94.7 26.4c0 .7 2 6.8 4.5 13.7 12.5 35 15.5 43.8 16 46.5s.3 2.6-1.5-1c-1.1-2.2-2-4.8-2-5.8s-.4-2.5-.9-3.5-2.3-5.8-4.1-10.7c-1.7-5-3.5-9.9-4-11s-2.3-6.5-4-12-3.8-11.2-4.6-12.7c-1.6-3.1-1.9-6.2-.4-5.3.6.3 1 1.2 1 1.8m-116 28.3q0 1.3-1 .9-.9-.6-1-1.6.1-.8 1-.9 1 .1 1 1.6m83.5 23.5c-7.2 23.9-10.5 33-10.5 29.2 0-1.1 5.3-18 9.1-29.1 2.6-7.6 3.7-7.6 1.4-.1m12.5 729.4c.4 16.6 1 28 1.7 29.6 1.4 3.2 6.6 7.7 10.1 8.6 4.7 1.3 27.4.9 31.5-.6a22 22 0 0 0 12.8-12.3c2.2-4.9 2.3-6.8 2.6-26.8.2-11.8.6-22.5.9-23.8.5-2.6 4.8-3.1 5.8-.6.8 2 .8 96.8 0 98.8-.3.9-1.6 1.6-2.9 1.6s-2.6-.7-2.9-1.6-.6-9.2-.6-18.5-.3-16.9-.7-16.9a25 25 0 0 0-5.2 3c-6.8 4.6-11.1 5.5-27.1 5.5-16.1-.1-20.6-1.3-26.4-7.1s-6-7.6-6.4-35.7a399 399 0 0 1 .2-28.3c.5-2 1.2-2.5 3.4-2.2l2.7.3zm-156 22.7c0 27.1-.4 49.9-.9 50.6s-1.9 1.2-3.2 1l-2.4-.3-.5-46.5c-.3-25.6-.7-46.6-.8-46.8h-27.9l-27.8.3-.5 45.5a791 791 0 0 1-1.3 46.7c-1.2 1.9-4.5 1.5-5.7-.6-1.1-2.2-1.5-97.3-.3-98.4.3-.4 16.5-.7 36-.7H449zm447.8-46c.2 1.6.2 2.9 0 3s-14.7.5-32.3.8l-32 .5v32l22.4.5c19.5.4 22.5.7 23.4 2.2q1.2 1.7-.2 3.2c-1.1 1.3-4.8 1.6-23.5 1.8l-22.1.3v45l32 .5 32 .5.3 2.7c.3 2.2-.2 3-2.3 3.8-1.5.6-15.4 1-33.8 1-26.7 0-31.6-.2-33.5-1.6l-2.2-1.5v-47.8c0-36 .3-48 1.2-48.9s9.7-1.2 35.8-1l34.5.3zm213 43c.1 25.5-.2 48.1-.6 50.3-.6 3.4-1.1 4-3.1 4-1.9 0-2.6-.7-3.2-2.9-.4-1.5-.8-22.2-.9-45.8 0-23.7-.3-43.5-.6-43.9a188 188 0 0 0-38.2.2c-1.7.6-3.4 1.8-3.9 2.7s-1 19.2-1.3 40.7c-.5 38.4-.5 39.1-2.8 42.7-2.5 4.1-6.3 5.8-12.7 5.8-8.3 0-8.7-6-.5-7.1s8-.4 8-38.8c0-35.7.8-44.9 3.8-49 3.5-4.8 5.1-5.1 31.4-5.1h24.6zm194.4-32.7 23.7 64.1c7.4 20 8.2 23.8 5.4 24.8-2.8 1.1-4.9-2.3-10.3-16.8-2.8-7.7-5.5-14.7-6-15.6-.8-1.4-3.5-1.6-22.4-1.5a226 226 0 0 0-22.1.6c-.3.3-3 7.3-6 15.4-3.1 8.2-6.2 15.7-7.1 16.6-2.2 2.5-5.4 1.3-5.4-2a286 286 0 0 1 10.1-29.6l21.2-57.8a123 123 0 0 1 4.3-10.8c.3-.6 2.7-.9 5.2-.7l4.7.3zm-1121 177 3 2.5h1340.6l3-2.5c3.8-3.1 4.2-3.1 7.5.3l2.7 2.8-3.1 3.2-3.1 3.2-3.2-2.5-3.3-2.5H185.2l-3.2 2.6c-3 2.6-3.1 2.6-5.1.8-3.7-3.4-4-4.8-1.3-7.7 3.1-3.3 3.8-3.3 7.6-.2m678.5 98.2 5.3 11.8 16.6 37c16.7 37.6 15.3 34.9 19.2 35.3l3.2.3v23.9h-8v-15l-38.7.2-38.8.3-.3 7.2-.3 7.3H812v-24h3.5c3.9 0 3.4.8 11.5-18.5l9.8-23 19.9-46.8q1.8-2.6 5 4m-462.9 36.7c16.8 34.1 21.2 42.1 21.2 38.8 0-.5 6.3-14 14.1-29.8l18.5-38.2c3.9-7.9 6.4-11.2 6.4-8.4a746 746 0 0 0 4 30.2c1.1 6.9 9 62.4 9 63.4 0 1.2-8.1.6-8.4-.7l-7.8-57c-.7-5.7-1.6-9.6-2.2-9.4-1.2.4-1.6 1.2-19.6 38a294 294 0 0 1-15.5 29.7c-.5 0-8.6-15.4-17.8-34.2a279 279 0 0 0-17.6-33.2c-.5.5-1.6 6.7-2.5 13.9-2.5 19.5-5.5 42.4-6.4 48l-.7 5-4.3.3c-3.8.3-4.3.1-3.8-1.5.3-1 1-5.9 1.6-10.8l2.5-18.5 4-28.5c4.2-31 5-35.5 5.9-35.5.3 0 9 17.3 19.4 38.4M657 2582v4h-45v32h45v8h-45v38l22.3.2 22.2.3.3 4.2.3 4.3H603v-95h54zm384 33c0 20.3.3 37 .8 37 .4-.1 2.7-2.5 5-5.5l7.6-9.2 48.3-57.1q1.5-2 2.4-2.2c.9-.2.9 20.6.9 47.5v47.5h-9l-.2-36.7-.3-36.7-6.5 7.5-20 23.4-32.4 37.8a19 19 0 0 1-4.7 4.7c-.5 0-.9-20.8-.9-47.5V2578h9zm247-20c0 9.3.4 17 .9 17 .8 0 11.9-10.1 29.3-26.7l7.7-7.3h5.8l5.8.1-7.6 7.2c-4.1 4-14.2 13.3-22.2 20.7a183 183 0 0 0-14.5 14.1c.2.6 11.8 13.3 20.3 22.3a816 816 0 0 1 27.5 30c0 .3-2.4.6-5.3.6h-5.2l-20.5-22a478 478 0 0 0-21.2-22c-.5 0-.8 9.9-.8 22v22h-9v-95h9z"/><path d="M930.3 988.5c-2.7 1.9-3.1 7.5-.8 9.9 1.9 1.9 6.8 2.9 12 2.4l4-.3v-13l-6.5-.3c-4.7-.2-7.1.2-8.7 1.3m-609.7.7c-.3 1.3-.6 3.9-.6 5.8s-.9 7.2-2 11.8-2 8.8-2 9.3 3.2.9 7.8.7l7.7-.3.3-14.8.3-14.7h-5.5c-4.7 0-5.4.3-6 2.2m539.4 2.4-3 7.8c-1.1 2.7-1.7 5.3-1.4 5.8.6.9 10.7 1.1 11.7.2.6-.6-4-14.2-5.4-15.8q-.9-.6-1.9 2m666.6 4.9c-3.7 9.4-3.7 9.5 3.4 9.5 5.1 0 6-.3 6-1.8 0-2.5-4.6-13.6-5.8-14-.5-.1-2.1 2.7-3.6 6.3m-709.1 357.6c-26.7 2.4-71.5 12.1-71.5 15.4 0 .7 1.9 2.5 4.3 4 2.3 1.6 4.5 3.3 4.9 3.9s2.9 4.1 5.7 7.6c6 7.6 5.8 7.4 9.5 12.5l4.3 5.5 14.3 18.1c4.2 5.2 8.3 10.5 9.2 11.9s2.5 3.5 3.7 4.7 3.1 3.7 4.4 5.5A112 112 0 0 0 821 1461c1.1.6 11.7 1 24.4 1h22.5l2.6-2.8c1.4-1.5 6-7.2 10.3-12.7 4.2-5.5 8.2-10.4 8.9-10.8s1.3-1.3 1.3-1.8 2-3.4 4.3-6.2a997 997 0 0 0 26-33.2l8.2-10.5c3.8-4.9 8.5-9.7 11.2-11.3q4.7-3 3.5-3.9c-2.8-2.8-35.4-10.1-59.2-13.3-14.7-2-52.8-2.8-67.5-1.4m130.8 16.9c-3.9 1.6-2.9 4 1.6 4s6.2-1.7 3.6-3.7c-2.1-1.5-2.2-1.5-5.2-.3m-212.8 1c-1.1 1.8.5 3 3.9 3q5.8 0 3.5-2.7c-1.3-1.5-6.5-1.8-7.4-.3"/><path d="M718.5 1377.9A338 338 0 0 0 573.6 1491c-10 13.5-12.4 17.6-11.1 18.9.6.5 13 1.1 28 1.3l27 .4 13.5 5.8a970 970 0 0 0 32.8 13.6l11.7 4.8 66 26.7c10 4.4 17.6 6.7 19.9 6.1A66 66 0 0 0 777 1552q.1-1.8-8-7.8a1127 1127 0 0 1-33.3-25c-4.9-3.5-9.2-6.6-27.5-20.6a63 63 0 0 1-10.4-10 686 686 0 0 0-21.7-30.4c-2-2.3-16.9-13.9-22.1-17.3-1.4-.9-4.5-3.5-7-5.8-4.1-3.8-4.2-4.1-1.3-2.7 2.9 1.5 8.4 5.6 25.7 19.5a48 48 0 0 1 9.1 9.1l8.4 12 9.8 13.9c3.5 5 7.7 8.6 25.5 21.8l10 7.5 16.3 12.1 18.3 13.5c4.7 3.6 9.3 6.2 10.7 6.2 2.3 0 7.9-5.1 13.5-12.3 2.8-3.6 2.2-5.8-3.4-12.6a27 27 0 0 1-4.9-8c-.3-1.4-.1-7.6.3-13.6s.9-12.4.9-14.2c.1-2.7.9-3.6 6.9-7.5l7.7-4.8 5.7-3.8a29 29 0 0 1 5.6-3.2c1.5 0 5.2-4.5 5.2-6.4 0-1.4-14.2-20.8-19.9-27.1a300 300 0 0 0-14.2-18.5 375 375 0 0 1-13.8-18.2l-3.3-4a85 85 0 0 0-12.7-14.7 45 45 0 0 0-10.7-1.6c-4.9-.4-9.9-1.3-11.1-2.1-2.9-1.8-2.3-1.9-12.8 2.5m240-2.5c-1.1.7-6.2 1.6-11.4 2s-10.2 1.3-11.2 1.9c-1 .7-3.8 4-6.3 7.3s-5.1 6.6-5.9 7.4-3.3 4.2-5.7 7.5-6.2 8.3-8.5 11l-6.5 8.5-8.1 10.4c-15.7 20.1-21.9 28.6-21.9 30.4q.1 3.3 8 7.6c1.9 1.1 3.7 2.2 4 2.6s4.4 3.1 9.2 6.1 9 6 9.3 6.8.8 8.3 1.2 16.8l.6 15.4-3 3.2q-7.4 8-7.3 11.1c0 1.3 2.7 5.3 6.3 9.3 7.1 8.2 9.4 8.9 15 4.5a608 608 0 0 1 35.9-26c.2-.4 7.3-6 15.8-12.4 16-12 19.4-14.9 22-18.8l4.5-6.4 7.5-10.5 7.6-10.8q3.9-5.6 19.4-16.8l9.5-7.3c6.5-5 8.5-6.1 8.5-4.5a82 82 0 0 1-13.4 10.2c-.6.2-1.7 1-2.4 1.7s-4.8 4-9.1 7.4c-7.5 5.8-9.3 8-24.4 29.5-1.6 2.2-4 5.8-5.4 8.1-1.7 2.6-6.6 7-13.5 12-6 4.3-12.1 8.9-13.6 10.1a1082 1082 0 0 1-31.4 23.8l-6 4.2a42 42 0 0 0-5.3 3.8l-5.2 4.3c-2.4 1.9-4.3 4.1-4.3 5s2.3 4.1 5 7.1c2.8 2.9 5 5.7 5 6 0 1 5.6 4.1 7.4 4.1.9 0 6.6-2.1 12.8-4.6l18.3-7.3 40-16 6.5-2.9c11.1-4.8 40-16.2 41.2-16.2 1.8 0-.2 1.6-3.7 2.8-1.6.6-7.9 3.1-14 5.7s-15 6.2-20 8.1l-13 5.4c-3.6 1.6-17.1 7.1-45.5 18.6l-11.5 4.9-7.3 3c-2.3 1-4.7 2.6-5.2 3.6s-1 9.9-1 19.9c0 23.1-.2 22.9 16.2 10.5l10.3-7.5 6.5-4.8c1.5-1.2 3.3-2.2 3.9-2.2q1 0 1.1-.8c0-.4 1.2-1.5 2.8-2.4a5363 5363 0 0 1 78.1-55.4c9-6.1 10.3-7.8 7.7-9.7-2.2-1.6-2.4-1.6 8.5-6.3l8.4-3.7 27.5-.4c27.6-.4 30-.6 30-2.1 0-2.6-17.9-26.7-31.1-41.7a337 337 0 0 0-136.4-93.5 7 7 0 0 0-3 1.4m-136 90.6c-1.6 1.8-11.5 28-11.5 30.6 0 2.1 6.1 6.8 23.1 17.8 5.7 3.6 9.8 4.6 10 2.3.4-9.3-.5-49.5-1.2-50.9-.8-1.5-2.3-1.8-9.8-1.8s-9.1.3-10.6 2m23.6.2c-.4 1.3-.5 13.1-.2 26.2.5 20.7.8 24 2.2 24.9s3.6-.2 10.7-5.1c5-3.4 9.3-6.2 9.6-6.2a35 35 0 0 0 7.9-6.3q3-2.8 2.2-4.5l-4.9-13.8c-2.3-6.6-4.9-13.3-5.9-14.7-1.7-2.6-2-2.7-11.2-2.7-9 0-9.6.1-10.4 2.2"/><path d="M806.1 1473.1c-4 2.7-7.8 4.9-8.2 4.9q-.8.1-.9.8c0 .5-1.2 1.4-2.6 2q-6.2 2.7 4.1 9.9c6.7 4.6 9.9 5.3 11.5 2.3 2.1-3.9 8.1-23.1 7.5-24-1.2-1.9-4-.9-11.4 4.1m66.2-2.4c.6 3.3 6.2 19.5 7.7 22.3 1.3 2.5 4.3 2.5 7.8.2l6.5-4.3c6.4-4.1 5.1-5.6-14.7-18.2a18 18 0 0 0-6.1-2.7c-1.3 0-1.6.6-1.2 2.7m-84.1 18.6c-.6.6-1.2 7.1-1.4 14.2l-.3 13.1 3.9 4.7c3 3.6 4.5 4.7 6.3 4.5 2-.3 2.9-1.8 6.3-11.8 2.2-6.3 4-12.2 4-13.1 0-1.9-4-5.6-10.6-9.7-5.6-3.5-6.7-3.8-8.2-1.9m102.8 3.3a29 29 0 0 0-7.4 6.4c-.7 1.4.2 5.2 2.9 13.6 2.2 6.3 4.4 12.2 5 13q2.3 3.3 8.1-4.4l3.4-4.5v-11.8c0-12.7-.9-16.9-3.7-16.8-1 0-4.7 2-8.3 4.5m-82.4 11.6a45 45 0 0 0-3.7 8.8 38 38 0 0 1-3 7.4c-1.4 1.5-1 7.3.4 7.9 1.7.7 33.9-5.1 35.1-6.3q.6-.8-.1-2.5a167 167 0 0 0-26-17.5c-.6 0-1.9 1-2.7 2.2m56.1 5.9c-11.6 7.9-13.9 10.1-12 12 1.1 1.1 33.4 7.1 35.1 6.4 1.9-.7 1.5-3.4-1.8-12.4-4.1-11.2-5.7-14.1-7.8-14-.9 0-7 3.6-13.5 8m191.3 16.6c-5.2 3.6-11.6 8.2-14.2 10.2l-11.8 8.6-17.6 12.5-15.6 11.2-12.3 8.8c-8 5.9-25.4 18.2-40 28.3-5.5 3.8-10.3 7.4-10.7 8-.8 1.3.9 4.7 2.3 4.7l21.9 8.5c8 3 15.3 6 16.2 6.5 1 .6 2.3 1 2.9 1s3 .9 5.3 1.9 11.9 4.9 21.5 8.6c13 5.1 17.8 6.5 19 5.8 1.5-.9 7.6-16.5 14.9-37.8 1.7-5 5.1-14.9 7.7-22a389 389 0 0 0 5.7-16.8c.6-2 1.4-3.7 1.8-3.7 1.1 0-.4 5.8-4 16l-8.4 24-9.1 25.8c-2 5.6-3.5 11.5-3.3 13l.3 2.7 15.5-.3c19.3-.4 64.2-2.8 68.8-3.8 2.8-.6 2.8-2.1-.2-11.4a6804 6804 0 0 0-31.1-96.3 103 103 0 0 0-7.1-18.4q-1.4-.4-2.8.6-1.5 1.4-1.9-.9c-.8-3.2-3.6-2.3-13.7 4.7m11.6 5.4c-1.5 3.4-1.5 3.4-.9.4q1-5.2 2-4.2c.2.3-.3 2-1.1 3.8m-6.6 20.1a153 153 0 0 1-6.1 16.3c-1.4 1.4.1-5.2 2.3-10.3 1-2.4 1.8-4.7 1.8-5.2 0-1.6 6.2-17.1 6.7-16.6.3.2-1.8 7.4-4.7 15.8m-426.6-29c-.9 1.4 3.2 5 13.1 11.6a545 545 0 0 1 25.5 18c2.6 1.7 15.7 11.1 17.5 12.4l20.5 14.6 32.9 23.6a57 57 0 0 0 15.5 9.4c2-.3 2.1-1 2.4-17.8.2-11.2-.2-18.4-.9-20.2-.8-1.9-2.7-3.3-7.2-5.2l-21.2-8.6-67.2-27.5a283 283 0 0 0-14.5-6c-5.1-1.9-10.1-3.9-11-4.5-2.4-1.3-4.5-1.3-5.4.2m583 3-10.3 11.3-10.1 11a2433 2433 0 0 1-32.4 35c-1.6 1.6-4.7 5.2-6.8 7.9q-8 10.2 4.5 3.9l20.2-9.8c24.3-11.3 23.3-10.7 26.8-20l8.2-21a94 94 0 0 0 7.1-21.4c-1.3-2-3.2-1.1-7.2 3.1m-383.9-1.1c-1.6.5-8.6 1.8-15.5 2.9-6.9 1.2-14.2 2.7-16.2 3.5-3.8 1.5-9.1 6.4-19.4 18.1l-11.3 12.7c-6.3 7-6.5 6.4 7.4 21.2 10.1 10.8 12.3 13.5 10.8 13.5-.5 0-5.5-5.2-11.3-11.5a85 85 0 0 0-11.7-11.5q-1 .1-2 1.2c-.8 1.4-.5 38.2.3 41.1.3 1 4.2 7.1 8.6 13.5l11.5 16.9c4.8 7.1 7.5 7 10.1-.2l5.6-14c6.5-15.6 6.3-16.8-4.1-27.6a27 27 0 0 1-5.3-6.4c0-.5 3.1 2.3 6.8 6.2a30 30 0 0 0 8.5 7.3c1.9 0 4.8-5.7 10.7-21 1.8-4.7 4-10.3 5-12.5l3.9-10c1.3-3.3 3.6-9 5.2-12.6s2.9-6.9 2.9-7.3 1.9-5.4 4.2-11.3c3.9-10.1 4-10.6 2.3-11.9-2.1-1.6-2.8-1.6-7-.3m16.3-.4q-1.6.5-1.8 1.8c0 1.8 8.8 25 14.5 38l9.5 24c4.5 11.5 8.6 21.6 9.2 22.2 1.8 2.2 3.8 1.5 7.1-2.3l6.7-7.3 11.5-12.5 12.2-13.5c4.6-5 5.3-7.8 2.6-10.2-1-.9-7.6-8-14.8-15.8a218 218 0 0 0-15.7-16.2c-1.8-1.4-8-2.9-19.5-4.8-9.2-1.6-17.5-3.1-18.3-3.4a7 7 0 0 0-3.2 0m-10.3 14.5-4.2 9.7a40 40 0 0 0-2.3 6.4 78 78 0 0 1-3.6 9.6c-12.2 28.8-19.4 47.6-19.4 50.4 0 2.5 3.6 6.8 18.3 22.3 3.6 3.8 7.5 8.1 8.7 9.6 2.2 2.9 5.8 3.7 6.5 1.5.6-2 1.5-110.7.8-112.3-1-2.6-3-1.4-4.8 2.8m7.2 2.5c-.8 4.1-.9 104.6-.1 106.6.9 2.4 3.9 2.1 6.1-.7 1-1.3 7.5-8.7 14.6-16.5s12.7-14.8 12.7-15.6c0-1.3-11.3-30.7-14.6-38.2-.8-1.7-4.1-10.1-7.4-18.5-8.1-20.4-7.8-19.8-9.4-19.8-.7 0-1.6 1.2-1.9 2.7m70.3 38.1-14.1 15.2-13.3 14.5a26 26 0 0 0-5.2 7.1 72 72 0 0 0 5.4 17l6.5 16.6c.9 2.6 5.1 2.3 6.6-.5a64 64 0 0 1 4.1-6.2c1.7-2.2 4.7-6.5 6.6-9.5 2-3 5.1-7.3 6.8-9.5 5.4-6.7 5.7-8.2 5.4-30-.3-23.5-.5-23.7-8.8-14.7"/><path d="M1156.2 1600.4c-11.8 6.1-14.1 8-17.4 14.4a412 412 0 0 1-20.6 34.9c-.9.8-4.4 1.3-8.1 1.3s-24.4.9-46.2 2.1l-39.5 2.1-9.5-3.5-22.9-9c-7.4-2.9-16.6-6.6-20.5-8l-23.4-9.2c-9-3.6-17.8-6.5-19.5-6.5-2.7.1-3.6.9-6.8 5.8l-11.2 16.6a78 78 0 0 0-7.6 12.3c0 1.9 3.3 2.9 16.7 5.3l67.8 12c14.8 2.6 16.5 3.2 19.1 7.3a908 908 0 0 0 20.2 26.2l21.9 28.3 15.5 20a605 605 0 0 1 14.1 18.2c1.2 1.4 4.3 5.2 6.8 8.6a395 395 0 0 0 13.1 16.6l9.7 12.3c4.9 6.3 5 8.3.3 12.8l-2.9 2.8-5.9-7.3-10.4-13.1-9.7-12.5-12.3-15.7c-8.6-11.2-9.8-12.6-23.9-30.5l-16-20.4-8.6-11-11.3-14.5c-4-5.1-8.2-10.1-9.5-11.1a22 22 0 0 0-9.2-2.5c-8.8-.8-40.9-4.2-53.5-5.6-5.2-.5-10.2-1.2-11.1-1.5-.8-.2-2.3.2-3.4.9-1.8 1.4-1.7 1.4.1 3.1 1 1 10.9 7.6 21.9 14.8 37.9 24.6 36.5 23.5 41.2 31.3a650 650 0 0 0 19.5 32.7 89 89 0 0 1 4.8 8.3c0 .3 1.6 3.2 3.7 6.3 2 3.1 6.5 10.6 10 16.7l7.3 12.5c3.4 5.4 5.1 9.8 7 17.6l3 12.9c3.6 15 10.8 47.1 13.5 60.3 1.4 6.9 1.4 6.7-7.5 27.7l-10.5 25a271 271 0 0 1-10.1 23.3c-.7.9-10.5-5.5-11-7.1-.5-1.7 1.9-6.9 19.2-40.4a74 74 0 0 0 8.4-19.4c0-1.9-1.6-9-3.5-15.9l-9-33-8.5-31.8c0-.7-2.1-4.6-4.7-8.7l-31.2-48.7c-3.1-4.7-8.3-13.1-11.6-18.4a60 60 0 0 0-21.5-22.9c-4.1-2.7-12.4-8.5-18.3-12.8-10.1-7.3-13.7-8.8-13.7-5.5 0 1.4 2.5 9 4 12.3l12.2 30c7.1 18.1 6.9 16.1 4.9 47-2.6 39.2-3.4 48.1-4.4 49.7a7571 7571 0 0 1-52.1 69c-1.4 1.6-4.9 1.7-38.6 1.8h-37.1l-2.2-2.4c-1.2-1.3-4.3-5.2-6.9-8.7l-15.5-20.9a1569 1569 0 0 1-22.2-29.9c-8.9-11.8-7.9-7.7-10-39.1-2.1-29.3-2.1-29.4-1-28.3.6.6 1.7 11.3 2.5 24.5 1.9 33.1 1.4 30.3 7.3 38.3l24.6 33c4.2 5.5 9.8 13.1 12.5 16.9 2.8 3.8 5.9 7.5 6.9 8.3 1.7 1.2 2.2 1.1 3.5-.9.9-1.2 1.6-3.6 1.7-5.3s.5-4.1 1-5.5q.9-2.5.3 3.5c-.3 3.3-.6 7.3-.5 8.9.1 5.4 1.1 5.7 16.5 5.4 13.7-.3 14.1-.4 14.1-2.4 0-2.9-20.5-35.1-22.9-36-2.7-.9-3.4.4-5 9.6-1.5 8.4-1.5 8.4-1.1 2l1.1-13c.6-7.2.5-7.6-9-22.1l-8.5-13-12.1-18.8-25.3-39.2c-4.2-7.4-7.2-7.2-7.9.6q-.3 3.8-1.1-5.6c-.9-9.5-.8-9.6 2.8-19 2.1-5.2 4.2-9.9 4.8-10.4 1.3-1.3.7.8-2.8 10.3-1.5 4-2.4 7.9-2.1 8.7.5 1.3 6 1.5 36.9 1.5 27.5 0 36.7-.3 37.9-1.3 1.5-1.1 5.1-21.4 7.9-44.2 1.9-14.9 5-38.2 5.9-43.5 2.2-12.8 2.4-19.2.7-20.5-1.1-.8-7.7-1-23.4-.7-25.5.4-25.2.3-28.9 10.2l-10 26-4.8 12.5a327 327 0 0 0-6.6 16.5c-1 2.5-3.1 7.6-4.5 11.5l-3.6 9.4q-.9 2.1-1.5 1.8c-.6-.5 4.1-14.1 7.6-22.2 4.7-11 6.2-15.4 5.7-16.9q-1.3-3-5.2-.1a249 249 0 0 1-14.9 10.5c-.3 0-3.3 2.1-6.8 4.7-3.5 2.7-8.6 6.3-11.3 8.1-2.8 1.9-6 4.8-7.3 6.5-3 4.2-22.9 35-35.8 55.7a135 135 0 0 1-9.7 14.5c-2.2 4-4.6 7-5.1 6.4-.3-.2.7-2.3 2.2-4.5l10.2-15.8 13.5-21a1507 1507 0 0 0 19.2-30.3c5.7-8.7 5.7-8.6-1.4-14.1-6.2-4.9-7.4-4.2-13.8 7.9-.9 1.7-2.5 2.6-2.5 1.4 0-.5 4.2-8.2 7-12.7.9-1.4 4.9-4.9 9-7.6l16.5-10.9c5-3.3 9.5-6.2 10-6.4l10-6.3 12.8-8.4q5.5-3.7 2.7-5.7c-.5-.3-4.5-.1-8.7.5-4.3.6-14.1 1.7-21.8 2.5-36.4 3.8-43.2 4.6-45.7 5.6a51 51 0 0 0-10.3 10.8l-8.8 11.1a2743 2743 0 0 1-38.7 49l-20 26-25.8 33.1c-2.9 3.8-5.8 6.6-6.5 6.4-1.7-.7-5.7-6.8-5.7-8.7 0-.8 3.9-6.4 8.6-12.4l12.7-16.2 5.8-7.2 7.5-9.6 21.8-27.9 6.2-7.9 4.5-6 10.9-14.1a822 822 0 0 0 20.9-27c4.6-6.1 8.9-11.3 9.6-11.7 1.9-1.1 33.5-7.2 64-12.3 35-5.9 37.2-6.6 35.7-10.4-.6-1.5-9-14.1-10.2-15.1l-3.4-5c-1.6-2.5-4.4-6.4-6.3-8.8-4.2-5.1-6.7-5.4-15-1.6-3.2 1.4-9.5 3.9-13.9 5.5-4.5 1.5-10.8 4-14 5.5-3.3 1.4-9.7 3.9-14.4 5.6l-12.5 4.7c-2.2 1-6.7 2.8-10 4l-15 6.1c-4.4 1.9-6.2 2-15.5 1.5a4954 4954 0 0 0-66-3.1c-9.1-.4-17.2-1-18.1-1.5s-6.5-9.5-12.4-20.1a257 257 0 0 0-12.7-21.4 38 38 0 0 0-8.6-5.5 60 60 0 0 1-8.2-4.6c-.9-.7-3.1-1.4-5-1.5-3.2-.3-3.5 0-4.8 3.7a336 336 0 0 0 4.3 194 256 256 0 0 0 16.8 42 319 319 0 0 0 33.3 55 413 413 0 0 0 36.5 41.9l10.9 10a338 338 0 0 0 314 72.2c23.2-6.3 62-22.7 80.8-34.3a321 321 0 0 0 53.7-39.8 325 325 0 0 0 54.9-63.5 332 332 0 0 0 55.2-150.5c2.1-18.9 2.1-54.5-.1-73.5-2.7-23.7-10.4-59.1-12.9-58.9-.6 0-5.7 2.4-11.4 5.3M699 1743.7c-1.7 3.2-6 10.5-9.5 16.3l-8.5 14-8.1 13.5a123 123 0 0 0-12.9 23.8c0 2.1 5.4 4.7 10 4.7h3.1l-1.7 3.2c-.9 1.8-3 8.2-4.5 14.3l-5.2 19.5c-1.4 4.7-3 10.7-3.7 13.5l-5.6 20.9c-2.4 8.8-4.4 16.7-4.4 17.7 0 1.7 22.6 47 27.2 54.6 1.1 1.8 1.7 4.1 1.4 5-.7 2.2-9 6.7-10.9 6-.8-.3-2.6-3.4-4-6.9a1834 1834 0 0 0-22.2-53.1l-3.8-8.9 1.7-7.6a2021 2021 0 0 1 11.5-49.2c7.6-34.9 6.1-30.4 16.7-48.2a886 886 0 0 1 14.4-24.2 388 388 0 0 0 11.5-19c5-8.6 9.3-15.6 9.8-15.6s-.7 2.6-2.3 5.7"/><path d="M657.2 1817.2q-1.1 1.2-1.2 2.6c0 1.2-1.3 6.9-5.5 24.7l-8.5 37a137 137 0 0 1-3.2 12.7q-1.9 5.4 2.7 7.6c3.8 1.7 5.7-.9 8.4-11.3A3585 3585 0 0 0 667 1828c1.7-6.4 1.3-8.8-2-10.5q-5.3-2.7-7.8-.3m-15.5 88.5c-1.2 1.1-.8 5.3.7 8.1l3.6 8.2 4.7 10.8 5.4 12.9 3.9 9.2 3.5 7.3q2.5 5.8 4.3 5.8c2.3 0 6.2-2.8 6.2-4.5 0-1.3-12-26-22.9-46.9-5.5-10.8-7.4-13-9.4-10.9m163.9-281.5-3.6 8.8c-1.2 3-2.6 6.3-3.1 7.2s-.9 2.3-.9 2.8-.9 3-2 5.2c-2.3 4.7-2.5 6.4-.9 7.3 1.6 1 42.2.6 43.2-.4 1.5-1.5-.2-4.4-6.4-11.1l-13.6-14.8a34 34 0 0 0-9.4-8.2q-1.9.1-3.3 3.2m69.2 1.5c-21.2 22.6-25.1 27.4-23.2 29.3.7.7 32.3 1.5 42.3 1.1 1.9-.1 1-4.9-3.2-15.8q-7.2-18.7-9.9-19.1c-.8-.2-3.5 1.9-6 4.5m-26 33.3c-1.7 1.4-1.7 2.2.6 18l8.1 57c4.1 29.1 4.5 31.5 6.1 32.7 1.3.9 10.2 1.1 36.8.7 19.3-.3 35.7-.7 36.4-1 1.6-.5 1.5-3.6-.2-7.6-.8-1.8-3.3-8-5.5-13.8l-9.2-23.5-7.9-20.5-11-28.3c0-.4-.8-2.7-1.9-5l-2.4-6c-1.1-3-4.9-3.6-26.8-3.9-17.8-.2-21.6-.1-23.1 1.2m-74.3.7-23.5 4.4c-8.5 1.7-20.4 3.9-26.5 4.9-35.5 6-34.5 5.7-34.5 9.3 0 1.3.9 3.2 2 4.2 1.7 1.5 3.1 1.7 10.7 1.1 4.9-.4 11.5-1.1 14.8-1.6s15.2-1.8 26.5-3c29.5-2.9 38.2-4.2 40-6 .8-.8 2.4-4.1 3.5-7.3 2.8-8.3 2-8.7-13-6m127.2-1c-1.4 1.3-.5 6 2.1 10.7l2.7 5 9 1.2c5 .7 20 2.4 33.5 3.9 30.4 3.2 39.7 4.3 43.2 5.1 2.1.4 3.3-.1 5.3-2 3.1-3.1 3.2-6.3.3-7.6-1.3-.5-6.6-1.6-11.8-2.4a1608 1608 0 0 1-45.5-8.2c-3.8-.8-11.3-2.1-16.5-2.9l-14.9-2.5c-6.3-1.2-6.6-1.2-7.4-.3m-58.6 14.1c-.5.9-1.2 4.6-1.5 8.2-.7 7-3.8 29-6.1 43.5L833 1742l-2.1 15.7c-1.6 10.2-1.5 10.3 13.1 10.3 6.5 0 12.5-.3 13.4-.6 2.7-1 2.1-6.8-4.9-53.9-2.1-14.6-5.5-39-5.5-40.2 0-1.9-2.9-2.3-3.9-.5m-163.3 12.9-5.8 7.4c-.8.9-3.2 3.8-5.2 6.5l-11.5 15-10.3 13.5c-1.4 1.8-4.1 5.2-6.1 7.4-1.9 2.2-5.3 6.5-7.4 9.4s-7.1 9.4-11 14.2L610 1775l-7.2 9.3a8 8 0 0 0-1.8 2.6c0 .3-1 1.7-2.3 3.1a239 239 0 0 0-18.7 25.5c0 1.7 2.2 3.5 4.3 3.5 1.8 0 4.2-2.4 9.9-9.9l6-7.8 12.5-16 14-18 16.2-21L655 1731c.3-.3 3.5-4.3 7-9l8.1-10.5 6-7.5c15-18.9 15.3-19.4 12.3-22.4-2.6-2.6-4.1-1.9-8.6 4.1m78.6 6-19.6 12.8c-10.5 6.6-22 14.8-22.5 16.1-.8 2.2 7.4 9.4 10.7 9.4 1.4 0 4.1-1.3 6-2.9l10.5-7.5c19-12.7 29.1-20 31.7-23.1a22 22 0 0 0 2.9-6.3c.6-2.3 1.6-4.5 2-4.8.5-.3.9-1.6.9-3 0-4.4-4-2.7-22.6 9.3m150.6-10c0 3.3 4.5 13.6 7.1 16.3a161 161 0 0 0 11.5 8.8c4.9 3.3 13.6 9.5 19.4 13.7s11.5 8 12.7 8.6q4.2 2.3 10.1-3c3.7-3.3 4-6.6.8-8.5-2.1-1.3-21.5-13.8-37.2-24.1-21.8-14.3-24.4-15.6-24.4-11.8m92.2-.5c-2.3 2.3-1.1 5.4 5.1 13.3l30.7 39.5c.4.3 4.9 6 10.1 12.8 11.6 15.3 17.2 22.4 22.7 29.3l6.7 8.4 10.4 13.5 10.4 13.4c5.3 7 7.5 8.8 9.7 7.6 2.1-1.1 2.8-6.4 1-7.5a125 125 0 0 1-13.9-18.7c-1.1-.4-10.2-11.4-14.9-18-2-2.9-4.7-6.4-5.9-7.8a980 980 0 0 1-24.3-31.1l-7-8.9-34.1-43.3c-3.2-3.9-4.7-4.5-6.7-2.5"/><path d="M971.2 1727.1c-7.5 5.5-8.4 3 16 40.7l8.8 13.7a375 375 0 0 0 22.7 34.2c3.3 1.3 11.3-2 11.3-4.6 0-.4-1.7-3.6-3.8-7.2-2.2-3.5-8.5-14.3-14.2-23.9-29.3-49.7-33.3-56-35.3-56a18 18 0 0 0-5.5 3.1M785 1770l-29.5.5-.3 2.5q-.2 2.6 3.1 7.1c1.9 2.5 4.3 6 5.4 7.9 1 1.9 4.9 8.2 8.7 14l11.1 17 5.8 9 5.1 7.5c4.4 6.5 11.8 18.1 14.2 22.3s5.5 4 6.5-.3c.4-1.7 1.7-10 2.9-18.5l4.6-34 3.5-25.5c.9-6.5.8-7.1-1.2-8.8q-2.1-1.6-6.3-1.5c-2.2.2-17.4.5-33.6.8m45.9.9c-2 1.6-2.5 4.5-6.5 31.6l-2.4 18-2.5 18-2.7 20.2-1.1 9.2 4.2 6.8c7 11.4 20.6 32.1 22.5 34.2 1 1.1 2.4 1.7 3.1 1.5 1.3-.5 10.9-14.3 13.5-19.4.7-1.4 1.6-2.7 1.9-3 1.1-1 6.8-9.5 10-15.2l3.1-5.6-1.5-10.9-11-79.1c-1-7.6-2.5-8.3-17-8.1-9 .2-12.1.6-13.6 1.8m33.1-.4c-1.1 1.3-.8 5.2 1.4 21.3l4.1 28.7c.8 4.9 2.4 15.6 3.4 23.8 1.1 8.1 2.3 15.2 2.6 15.7 1.4 2.3 3.5.4 10.4-10.3l16-23.9a399 399 0 0 0 15.2-23.8l10.1-15.5c8.2-12.6 9.1-14.3 8.4-16.1-.8-2.2-69.8-2.1-71.6.1m71.7 6.6c-.9.6-2.7 2.8-4 5.1-2.6 4.8-2.4 4.4-11.2 17.8l-8 12.2-24.6 38.3c-12.6 19.6-12.3 18.5-8.9 38.8 1.1 6.5 2 13.1 2 14.6s.7 3.6 1.5 4.7c1.5 1.8 1.6 1.8 4.6-1.6 2.9-3.3 41-53.9 45.8-60.8 1.9-2.7 2.4-5.2 3.1-16.5 2.6-37.3 3.3-51.8 2.4-52.7q-.9-.8-2.7.1m89.1 40c-1.4.6-2.9 1.7-3.2 2.6-.4.8.9 6.8 2.8 13.2s3.7 13.2 4.1 15.1a437 437 0 0 0 5 18.5l6.6 24.4c1.8 7 3 9.7 4.7 10.9 2 1.3 2.4 1.3 4.3-.4q2.2-1.8 1.6-4.9c-.4-3.2-5.1-24-9.1-41l-5.1-22c-3.8-16.9-3.8-17-6.6-17.2-1.3-.1-3.6.3-5.1.8m-160.5 69.6c-13.5 20.9-15.5 24.3-15.1 26 .3 1.6 1.9 1.8 14.4 2.1 11.6.2 14.3 0 15.4-1.3 1-1.2.8-4.7-.9-17.9-1.2-9.1-2.4-17.2-2.7-18-1.4-3.8-4.3-1.4-11.1 9.1m179.9 19.6a881 881 0 0 0-28.2 56.9c0 2 3.6 4.8 6.2 4.8 1 0 2.3-1.4 3.1-3.3l11.5-27.2 7.7-18.2a49 49 0 0 0 4.2-12.8c-.8-1.8-3.1-2-4.5-.2m240.5 420.5a655 655 0 0 0-8.7 24.4c0 .5 8.3.8 18.5.8 14.2 0 18.5-.3 18.5-1.3-.1-2.2-17.7-47.1-18.6-47.4-.5-.1-4.9 10.4-9.7 23.5M857 2596c0 .7-.6 2.6-1.4 4.3l-10.6 25.2-10 24-3.4 7.9-2.6 6.2c0 .2 13.5.4 30 .4s30-.2 30-.5-6.7-15.6-15-34.2c-13.2-30-17-37.4-17-33.3"/></svg>