<svg width="200" height="200" viewBox="0 0 200 200" fill="none" xmlns="http://www.w3.org/2000/svg">
  <!-- Compact version - just the bee in circle -->
  <g transform="translate(100, 100)">
    <!-- Outer Circle -->
    <circle cx="0" cy="0" r="90" stroke="#C9A961" stroke-width="2" fill="none"/>
    
    <!-- Bee Body - Geometric Design -->
    <g id="bee">
      <!-- Head -->
      <circle cx="0" cy="-38" r="12" stroke="#C9A961" stroke-width="1.5" fill="none"/>
      <line x1="-4" y1="-38" x2="4" y2="-38" stroke="#C9A961" stroke-width="1.5"/>
      
      <!-- Antennae -->
      <line x1="-8" y1="-45" x2="-12" y2="-60" stroke="#C9A961" stroke-width="1.5"/>
      <line x1="8" y1="-45" x2="12" y2="-60" stroke="#C9A961" stroke-width="1.5"/>
      <circle cx="-12" cy="-60" r="3" stroke="#C9A961" stroke-width="1.5" fill="none"/>
      <circle cx="12" cy="-60" r="3" stroke="#C9A961" stroke-width="1.5" fill="none"/>
      
      <!-- Upper Body Segment -->
      <path d="M -12,-23 L 12,-23 L 15,0 L -15,0 Z" stroke="#C9A961" stroke-width="1.5" fill="none"/>
      <line x1="-12" y1="-15" x2="12" y2="-15" stroke="#C9A961" stroke-width="1.5"/>
      <line x1="-13" y1="-8" x2="13" y2="-8" stroke="#C9A961" stroke-width="1.5"/>
      
      <!-- Middle Body Segment -->
      <path d="M -15,0 L 15,0 L 12,23 L -12,23 Z" stroke="#C9A961" stroke-width="1.5" fill="none"/>
      <line x1="-13" y1="8" x2="13" y2="8" stroke="#C9A961" stroke-width="1.5"/>
      <line x1="-12" y1="15" x2="12" y2="15" stroke="#C9A961" stroke-width="1.5"/>
      
      <!-- Stinger -->
      <path d="M -8,23 L 0,38 L 8,23" stroke="#C9A961" stroke-width="1.5" fill="none"/>
      <line x1="0" y1="38" x2="0" y2="45" stroke="#C9A961" stroke-width="1.5"/>
      
      <!-- Left Wing - Geometric Pattern -->
      <g id="left-wing">
        <path d="M -15,-15 L -68,-8 L -53,15 Z" stroke="#C9A961" stroke-width="1.5" fill="none"/>
        <line x1="-15" y1="-15" x2="-53" y2="15" stroke="#C9A961" stroke-width="1.5"/>
        <line x1="-34" y1="-11" x2="-45" y2="8" stroke="#C9A961" stroke-width="1.5"/>
        
        <path d="M -53,15 L -75,8 L -68,-8 Z" stroke="#C9A961" stroke-width="1.5" fill="none"/>
        <line x1="-53" y1="15" x2="-68" y2="-8" stroke="#C9A961" stroke-width="1.5"/>
        <line x1="-60" y1="11" x2="-71" y2="0" stroke="#C9A961" stroke-width="1.5"/>
      </g>
      
      <!-- Right Wing - Geometric Pattern -->
      <g id="right-wing">
        <path d="M 15,-15 L 68,-8 L 53,15 Z" stroke="#C9A961" stroke-width="1.5" fill="none"/>
        <line x1="15" y1="-15" x2="53" y2="15" stroke="#C9A961" stroke-width="1.5"/>
        <line x1="34" y1="-11" x2="45" y2="8" stroke="#C9A961" stroke-width="1.5"/>
        
        <path d="M 53,15 L 75,8 L 68,-8 Z" stroke="#C9A961" stroke-width="1.5" fill="none"/>
        <line x1="53" y1="15" x2="68" y2="-8" stroke="#C9A961" stroke-width="1.5"/>
        <line x1="60" y1="11" x2="71" y2="0" stroke="#C9A961" stroke-width="1.5"/>
      </g>
      
      <!-- Legs -->
      <line x1="-12" y1="8" x2="-30" y2="30" stroke="#C9A961" stroke-width="1.5"/>
      <line x1="-30" y1="30" x2="-38" y2="45" stroke="#C9A961" stroke-width="1.5"/>
      
      <line x1="12" y1="8" x2="30" y2="30" stroke="#C9A961" stroke-width="1.5"/>
      <line x1="30" y1="30" x2="38" y2="45" stroke="#C9A961" stroke-width="1.5"/>
      
      <line x1="-8" y1="18" x2="-23" y2="42" stroke="#C9A961" stroke-width="1.5"/>
      <line x1="-23" y1="42" x2="-27" y2="57" stroke="#C9A961" stroke-width="1.5"/>
      
      <line x1="8" y1="18" x2="23" y2="42" stroke="#C9A961" stroke-width="1.5"/>
      <line x1="23" y1="42" x2="27" y2="57" stroke="#C9A961" stroke-width="1.5"/>
    </g>
  </g>
</svg>
