<?xml version="1.0" standalone="no"?>
<!DOCTYPE svg PUBLIC "-//W3C//DTD SVG 20010904//EN"
 "http://www.w3.org/TR/2001/REC-SVG-20010904/DTD/svg10.dtd">
<svg version="1.0" xmlns="http://www.w3.org/2000/svg"
 width="1712.000000pt" height="3704.000000pt" viewBox="0 0 1712.000000 3704.000000"
 preserveAspectRatio="xMidYMid meet">

<g transform="translate(0.000000,3704.000000) scale(0.100000,-0.100000)"
fill="#000000" stroke="none">
<path d="M0 18520 l0 -18520 8560 0 8560 0 0 18520 0 18520 -8560 0 -8560 0 0
-18520z m9458 8671 c11 -6 14 -45 15 -165 0 -86 -3 -159 -6 -163 -4 -3 -7 25
-7 64 0 87 -8 95 -79 84 -59 -9 -65 -15 -86 -86 -8 -28 -24 -56 -36 -63 -29
-18 -39 -5 -13 16 12 9 27 35 34 57 7 22 16 44 21 50 15 15 10 36 -11 53 -11
10 -23 34 -27 54 -11 70 35 105 137 107 25 0 51 -3 58 -8z m-7813 -76 c27 -41
54 -75 60 -75 5 0 33 34 60 75 28 41 53 74 58 75 4 0 7 -75 7 -166 0 -111 -3
-163 -10 -159 -7 4 -10 47 -9 108 3 183 0 189 -55 103 -19 -30 -39 -57 -45
-60 -5 -4 -31 24 -58 61 l-48 68 -3 -140 c-4 -207 -22 -196 -22 13 0 95 4 172
8 172 5 0 30 -34 57 -75z m959 65 c-5 -5 -54 -11 -109 -12 l-100 -3 0 -55 0
-55 75 -6 c90 -7 89 -9 -5 -12 l-70 -2 0 -80 0 -80 110 -5 c139 -6 117 -22
-26 -18 l-104 3 -3 155 c-1 85 0 160 2 167 4 10 36 13 123 13 75 0 114 -3 107
-10z m736 -142 c0 -124 3 -155 16 -169 9 -10 14 -28 11 -41 l-4 -23 -8 23 c-7
21 -12 22 -121 22 -107 0 -114 -1 -114 -20 0 -11 -4 -20 -10 -20 -18 0 -10 47
10 61 21 15 52 138 65 262 l6 57 75 0 74 0 0 -152z m790 -15 c0 -91 -3 -164
-6 -161 -3 3 -5 57 -5 119 0 117 -4 149 -19 149 -4 0 -48 -61 -96 -135 -49
-74 -95 -134 -101 -135 -10 0 -13 38 -13 160 0 100 4 160 10 160 6 0 10 -52
10 -135 0 -74 4 -135 9 -135 5 0 51 63 102 140 51 77 97 140 101 140 4 0 8
-75 8 -167z m1320 21 c0 -74 3 -134 8 -134 4 0 49 63 101 140 52 77 98 140
103 140 4 0 8 -74 8 -165 0 -103 -4 -165 -10 -165 -6 0 -10 54 -10 141 0 85
-4 138 -9 134 -6 -3 -47 -61 -92 -128 -128 -191 -119 -192 -119 11 0 113 3
171 10 167 6 -4 10 -62 10 -141z m1000 -111 l-7 -88 -2 80 c-1 44 -5 86 -9 93
-6 9 -34 12 -103 10 l-94 -3 -3 -82 c-2 -46 -7 -83 -12 -83 -6 0 -10 64 -10
160 0 100 4 160 10 160 6 0 10 -28 10 -65 0 -61 2 -65 23 -66 192 -7 187 -9
188 78 l2 68 7 -87 c4 -49 4 -127 0 -175z m761 247 c12 -7 19 -21 19 -38 -1
-25 -1 -26 -12 -7 -17 31 -28 35 -98 35 -105 0 -110 -7 -110 -150 0 -145 4
-150 117 -150 70 0 74 1 84 26 12 32 24 25 15 -9 -7 -28 -30 -37 -96 -37 -71
0 -119 17 -130 46 -13 34 -13 231 1 255 6 11 20 24 32 29 31 12 154 12 178 0z
m1480 -155 c62 -171 64 -175 50 -175 -5 0 -17 24 -27 53 l-19 52 -78 3 -77 3
-25 -57 c-14 -31 -28 -54 -31 -51 -6 5 30 110 107 315 19 50 40 20 100 -143z
m2867 -2 c2 -107 -1 -163 -8 -163 -6 0 -10 51 -10 139 0 77 -3 146 -6 155 -5
12 -21 16 -74 16 -53 0 -69 -4 -74 -16 -3 -9 -6 -72 -6 -140 0 -111 -2 -126
-20 -144 -20 -20 -40 -26 -40 -12 0 4 9 13 20 20 18 11 20 23 20 152 0 165 -3
161 115 157 l80 -2 3 -162z m782 -4 c0 -99 -4 -159 -10 -159 -6 0 -10 52 -10
135 0 101 -3 135 -12 135 -7 0 -53 -61 -103 -135 -49 -74 -95 -135 -102 -135
-10 0 -13 36 -13 160 0 100 4 160 10 160 6 0 10 -52 10 -136 0 -104 3 -135 13
-132 6 3 54 66 105 141 51 76 98 135 103 132 5 -4 9 -78 9 -166z m558 81 l-3
-45 98 -5 c54 -3 101 -3 103 -1 2 2 4 33 4 67 0 35 5 66 10 69 7 4 10 -52 10
-159 0 -99 -4 -166 -10 -166 -5 0 -10 37 -12 83 l-3 82 -88 3 c-51 2 -94 -2
-101 -7 -8 -7 -12 -32 -11 -68 1 -32 -1 -67 -6 -78 -4 -11 -8 56 -8 150 0 123
3 163 10 145 6 -14 9 -45 7 -70z m1005 -75 c0 -85 -3 -158 -6 -162 -4 -3 -7
55 -7 130 0 103 -3 137 -12 137 -7 0 -55 -63 -107 -140 -52 -76 -98 -137 -102
-134 -11 7 -11 311 0 319 7 4 11 -42 13 -127 2 -73 7 -133 12 -133 5 0 42 50
83 110 101 150 114 167 120 161 3 -3 6 -75 6 -161z m1420 138 c11 -22 96 -246
109 -288 2 -5 -1 -12 -6 -15 -5 -3 -17 18 -26 45 l-17 50 -80 3 -81 3 -17 -50
c-16 -49 -35 -76 -35 -49 0 7 21 67 46 133 25 66 49 132 54 147 18 57 32 62
53 21z m-10548 -288 l80 0 3 140 c4 191 22 203 22 13 0 -117 3 -148 15 -158 8
-7 15 -22 15 -33 0 -19 -1 -19 -12 -4 -11 13 -34 17 -118 19 l-105 3 -3 145
c-1 79 1 151 5 160 4 8 10 -52 13 -135 l5 -150 80 0z m3018 147 c39 -8 63 8
96 64 34 55 75 93 88 80 4 -3 -3 -13 -15 -22 -23 -16 -92 -117 -92 -135 0 -16
78 -127 97 -138 10 -5 15 -12 11 -16 -12 -12 -47 20 -85 77 -36 57 -61 74
-100 66 -15 -3 -19 -16 -23 -78 -5 -67 -6 -70 -10 -30 -3 25 -3 99 0 165 4
116 4 117 10 45 4 -62 8 -75 23 -78z m3000 121 c-44 -40 -99 -132 -87 -148 5
-6 22 -32 38 -56 15 -24 38 -52 50 -61 11 -9 17 -20 13 -24 -10 -11 -45 24
-84 83 -33 52 -66 72 -98 59 -11 -4 -15 -21 -15 -65 0 -33 -4 -63 -10 -66 -6
-4 -10 47 -10 144 0 101 4 151 11 151 6 0 10 -18 9 -42 -4 -99 -4 -100 37 -96
34 3 42 9 80 67 43 66 58 81 83 81 8 0 2 -11 -17 -27z m3670 -25 c-3 -15 -2
-43 1 -63 6 -32 10 -35 40 -35 30 0 38 7 77 67 24 36 52 71 61 77 26 16 35 -2
10 -20 -24 -16 -92 -117 -92 -136 0 -17 68 -116 92 -132 12 -9 19 -18 16 -22
-12 -11 -49 23 -86 78 -41 62 -48 68 -83 68 -30 0 -39 -26 -39 -107 0 -27 -4
-42 -10 -38 -11 7 -14 297 -3 308 12 12 22 -16 16 -45z m-5578 -3598 c172 -24
380 -67 509 -104 48 -14 104 -26 124 -26 22 0 44 -8 58 -21 12 -11 61 -35 110
-53 361 -134 801 -409 1067 -665 38 -36 74 -69 81 -73 36 -20 317 -348 394
-460 13 -18 41 -57 62 -87 22 -30 42 -62 45 -73 6 -15 17 -18 87 -18 45 0 79
-2 77 -4 -6 -7 -159 -14 -429 -21 -129 -3 -245 -8 -257 -11 -31 -6 -29 -28 8
-86 29 -45 34 -77 7 -50 -18 18 -28 14 -28 -10 0 -13 38 -140 85 -283 47 -143
130 -395 183 -560 86 -261 101 -300 120 -303 17 -3 26 8 48 50 14 29 37 67 50
85 13 17 24 34 24 37 0 3 20 42 45 87 25 45 45 91 45 103 0 12 -47 87 -105
167 -193 267 -330 452 -356 483 -33 40 -73 106 -67 111 4 5 43 -45 193 -250
48 -66 100 -136 115 -155 15 -19 44 -60 65 -90 35 -51 90 -123 142 -188 19
-24 23 -25 36 -12 8 8 20 44 26 80 7 36 23 112 36 170 13 58 42 200 64 315 23
116 46 230 53 254 10 39 9 45 -7 57 -10 8 -33 15 -49 15 -20 1 -11 5 24 10 30
4 63 6 73 3 18 -6 18 -7 -1 -27 -13 -15 -26 -59 -40 -137 -11 -63 -46 -238
-76 -387 -31 -150 -56 -284 -56 -298 0 -54 5 -50 315 284 33 36 92 99 131 140
39 42 97 105 130 140 32 35 77 82 99 105 71 75 125 143 125 159 0 9 -7 20 -17
25 -14 9 -14 10 6 17 27 8 71 -1 71 -16 0 -6 -13 -41 -29 -77 -16 -37 -46
-112 -66 -167 -20 -55 -40 -104 -45 -109 -6 -6 -10 -16 -10 -23 0 -13 -73
-206 -101 -267 -11 -24 -45 -44 -198 -118 -173 -83 -183 -90 -164 -103 20 -14
61 -164 102 -375 43 -215 56 -662 27 -940 -92 -893 -535 -1704 -1251 -2291
-406 -333 -921 -580 -1429 -684 -290 -59 -390 -69 -711 -70 -313 0 -381 6
-645 56 -428 81 -811 234 -1195 477 -301 190 -647 505 -849 772 -404 533 -617
1047 -703 1692 -22 166 -25 650 -5 798 39 281 99 543 129 566 14 9 -14 26
-169 102 -111 54 -191 98 -197 110 -6 11 -23 53 -37 94 -23 66 -103 273 -125
323 -4 11 -18 44 -29 73 -11 28 -29 75 -41 103 -24 61 -20 79 18 78 33 -1 79
-17 52 -18 -9 -1 -22 -8 -29 -16 -10 -12 -7 -22 16 -52 15 -20 40 -48 55 -62
59 -58 361 -392 357 -396 -2 -2 -20 12 -40 33 -20 20 -61 63 -92 94 -31 32
-56 61 -56 64 0 3 -19 25 -42 48 -24 23 -67 68 -96 100 -29 32 -58 56 -65 54
-20 -7 -19 -43 2 -89 20 -44 110 -276 138 -359 26 -75 2 -60 375 -239 127 -61
168 -72 168 -48 0 6 -57 74 -126 150 -70 76 -124 140 -121 143 5 6 2 9 127
-126 157 -171 170 -182 187 -168 9 7 13 23 10 42 -7 48 -54 284 -72 361 -9 39
-25 118 -35 178 -11 59 -23 120 -26 135 -4 15 -4 24 0 20 10 -8 19 -47 56
-238 32 -159 44 -217 80 -376 11 -50 20 -101 20 -112 0 -11 8 -29 18 -41 14
-19 20 -20 34 -9 13 10 142 182 266 357 9 13 22 28 27 35 6 6 50 65 98 131
110 152 127 173 127 159 0 -13 -39 -72 -79 -121 -14 -17 -50 -65 -79 -105 -29
-40 -118 -161 -197 -268 -79 -107 -152 -209 -162 -227 -20 -37 -24 -28 107
-253 103 -177 108 -178 159 -23 37 113 59 158 46 93 -4 -19 -20 -74 -36 -122
-33 -98 -36 -133 -13 -142 19 -7 271 -23 494 -31 91 -3 204 -8 251 -11 73 -4
89 -3 103 12 10 10 14 23 10 33 -3 9 -33 95 -67 191 -33 96 -69 199 -79 229
-10 29 -17 56 -14 59 3 2 8 -1 10 -9 95 -275 172 -478 187 -494 18 -19 21 -19
61 -3 24 9 106 41 183 71 159 61 309 120 375 147 25 10 85 35 133 54 49 20 95
36 102 36 17 0 45 28 45 45 0 10 -152 124 -373 279 -126 88 -283 200 -287 205
-3 4 -23 18 -45 33 -22 15 -61 42 -86 60 -25 18 -73 52 -105 75 -32 24 -99 72
-149 107 -185 133 -280 196 -297 196 -23 0 -23 -31 -2 -71 8 -17 13 -38 11
-47 -3 -13 -6 -12 -15 8 -6 14 -13 38 -17 53 -7 33 -31 46 -49 26 -7 -8 -44
-108 -81 -224 -94 -291 -118 -360 -123 -347 -2 7 10 54 27 105 17 50 41 125
55 165 13 40 26 76 30 79 3 4 6 13 6 22 0 8 10 46 22 84 16 51 18 71 10 79 -9
9 -18 6 -37 -12 -36 -34 -31 -18 16 52 64 94 71 92 -247 101 -148 4 -312 11
-364 16 l-95 8 103 2 c67 1 102 5 102 12 0 14 126 198 214 312 115 149 341
374 534 533 13 10 36 29 50 42 43 38 299 206 402 264 127 72 312 161 438 210
63 25 107 48 113 60 9 16 18 19 47 16 24 -3 71 6 130 24 170 53 526 116 742
132 136 10 500 -4 645 -24z m-3800 -1570 c97 -7 96 -7 -55 -7 -85 0 -200 3
-255 7 -97 7 -96 7 55 7 85 0 200 -3 255 -7z m7035 0 c-63 -4 -178 -7 -255 -7
-134 1 -136 1 -45 7 52 3 167 6 255 6 l160 1 -115 -7z m-6817 -9 c17 -6 17 -8
-2 -25 -19 -17 -21 -17 -36 -2 -9 9 -22 16 -28 17 -14 1 23 18 38 18 6 0 18
-4 28 -8z m947 -264 c0 -7 20 -68 45 -137 125 -350 155 -438 160 -465 5 -27 3
-26 -15 10 -11 22 -20 48 -20 58 0 9 -4 25 -9 35 -5 9 -23 58 -41 107 -17 50
-35 99 -40 110 -5 11 -23 65 -40 120 -18 55 -38 112 -46 127 -16 31 -19 62 -4
53 6 -3 10 -12 10 -18z m-1160 -283 c0 -8 -4 -12 -10 -9 -5 3 -10 10 -10 16 0
5 5 9 10 9 6 0 10 -7 10 -16z m835 -235 c-72 -239 -105 -330 -105 -292 0 11
53 180 91 291 26 76 37 76 14 1z m125 -7294 c4 -166 10 -280 17 -296 14 -32
66 -77 101 -86 47 -13 274 -9 315 6 56 19 101 63 128 123 22 49 23 68 26 268
2 118 6 225 9 238 5 26 48 31 58 6 8 -20 8 -968 0 -988 -3 -9 -16 -16 -29 -16
-13 0 -26 7 -29 16 -3 9 -6 92 -6 185 0 93 -3 169 -7 169 -5 0 -28 -14 -52
-30 -68 -46 -111 -55 -271 -55 -161 1 -206 13 -264 71 -57 57 -60 76 -64 357
-2 142 -1 270 2 283 5 20 12 25 34 22 l27 -3 5 -270z m-1560 -227 c0 -271 -4
-499 -9 -506 -4 -8 -19 -12 -32 -10 l-24 3 -5 465 c-3 256 -7 466 -8 468 -1 1
-127 1 -279 0 l-278 -3 -5 -455 c-3 -250 -9 -461 -13 -467 -12 -19 -45 -15
-57 6 -11 22 -15 973 -3 984 3 4 165 7 360 7 l353 0 0 -492z m4478 460 c2 -16
2 -29 0 -30 -2 -1 -147 -5 -323 -8 l-320 -5 0 -160 0 -160 224 -5 c195 -4 225
-7 234 -22 8 -12 7 -21 -2 -32 -11 -13 -48 -16 -235 -18 l-221 -3 0 -225 0
-225 320 -5 320 -5 3 -27 c3 -22 -2 -30 -23 -38 -15 -6 -154 -10 -338 -10
-267 0 -316 2 -335 16 l-22 15 0 478 c0 360 3 480 12 489 9 9 97 12 358 10
l345 -3 3 -27z m2130 -430 c1 -255 -2 -481 -6 -503 -6 -34 -11 -40 -31 -40
-19 0 -26 7 -32 29 -4 15 -8 222 -9 458 0 237 -3 435 -6 439 -8 13 -345 11
-382 -2 -17 -6 -34 -18 -39 -27 -4 -9 -10 -192 -13 -407 -5 -384 -5 -391 -28
-427 -25 -41 -63 -58 -127 -58 -83 0 -87 60 -5 71 81 11 80 4 80 388 0 357 8
449 38 490 35 48 51 51 314 51 l246 0 0 -462z m1944 327 c58 -156 141 -382
237 -641 74 -200 82 -238 54 -248 -28 -11 -49 23 -103 168 -28 77 -55 147 -60
156 -8 14 -35 16 -224 15 -118 0 -218 -3 -221 -6 -3 -3 -30 -73 -60 -154 -31
-82 -62 -157 -71 -166 -22 -25 -54 -13 -54 20 0 15 45 148 101 296 55 149 106
288 114 310 7 22 24 69 38 105 13 36 40 109 60 163 20 54 39 103 43 108 3 6
27 9 52 7 l47 -3 47 -130z m-11210 -1770 l30 -25 6703 0 6703 0 30 25 c38 31
42 31 75 -3 l27 -28 -31 -32 -31 -32 -32 25 -33 25 -6711 0 -6710 0 -32 -26
c-30 -26 -31 -26 -51 -8 -37 34 -40 48 -13 77 31 33 38 33 76 2z m6785 -982
c12 -27 36 -79 53 -118 18 -38 92 -205 166 -370 167 -376 153 -349 192 -353
l32 -3 0 -120 0 -119 -40 0 -40 0 0 75 0 75 -387 -2 -388 -3 -3 -72 -3 -73
-39 0 -40 0 0 120 0 120 35 0 c39 0 34 -8 115 185 23 55 48 114 55 130 8 17
27 62 43 100 160 378 195 461 199 468 11 18 30 3 50 -40z m-4629 -367 c168
-341 212 -421 212 -388 0 5 63 140 141 298 77 159 161 331 185 382 39 79 64
112 64 84 0 -15 29 -235 40 -302 11 -69 90 -624 90 -634 0 -12 -81 -6 -84 7
-2 6 -9 53 -16 102 -26 192 -50 374 -62 468 -7 57 -16 96 -22 94 -12 -4 -16
-12 -196 -380 -79 -163 -149 -297 -155 -297 -5 0 -86 154 -178 342 -95 194
-171 337 -176 332 -5 -5 -16 -67 -25 -139 -25 -195 -55 -424 -64 -480 l-7 -50
-43 -3 c-38 -3 -43 -1 -38 15 3 10 10 59 16 108 6 50 17 133 25 185 8 52 26
181 40 285 42 310 50 355 59 355 3 0 90 -173 194 -384z m2582 344 l0 -40 -225
0 -225 0 0 -160 0 -160 225 0 225 0 0 -40 0 -40 -225 0 -225 0 0 -190 0 -190
223 -2 222 -3 3 -42 3 -43 -270 0 -271 0 0 475 0 475 270 0 270 0 0 -40z
m3840 -330 c0 -203 3 -370 8 -370 4 1 27 25 50 55 24 30 58 71 76 92 54 63
165 193 271 318 55 65 122 144 149 174 26 31 55 66 63 79 9 12 19 22 24 22 5
0 9 -206 9 -475 l0 -475 -45 0 -45 0 -2 367 -3 367 -65 -75 c-36 -42 -126
-147 -200 -234 -74 -87 -169 -197 -210 -244 -41 -48 -92 -108 -114 -134 -21
-26 -42 -47 -47 -47 -5 0 -9 208 -9 475 l0 475 45 0 45 0 0 -370z m2470 200
c0 -93 4 -170 9 -170 8 0 119 101 293 267 l77 73 58 0 58 -1 -76 -72 c-41 -40
-142 -133 -222 -207 -81 -74 -146 -138 -145 -141 2 -6 118 -133 203 -223 157
-167 275 -296 275 -300 0 -3 -24 -6 -53 -6 l-52 0 -205 220 c-113 121 -208
220 -212 220 -5 0 -8 -99 -8 -220 l0 -220 -45 0 -45 0 0 475 0 475 45 0 45 0
0 -170z"/>
<path d="M9303 27155 c-27 -19 -31 -75 -8 -99 19 -19 68 -29 120 -24 l40 3 0
65 0 65 -65 3 c-47 2 -71 -2 -87 -13z"/>
<path d="M3206 27148 c-3 -13 -6 -39 -6 -58 0 -19 -9 -72 -20 -118 -11 -46
-20 -88 -20 -93 0 -6 32 -9 78 -7 l77 3 3 148 3 147 -55 0 c-47 0 -54 -3 -60
-22z"/>
<path d="M8600 27124 c-7 -16 -20 -51 -30 -78 -11 -27 -17 -53 -14 -58 6 -9
107 -11 117 -2 6 6 -40 142 -54 158 -5 5 -13 -4 -19 -20z"/>
<path d="M15266 27075 c-37 -94 -37 -95 34 -95 51 0 60 3 60 18 0 25 -46 136
-58 140 -5 1 -21 -27 -36 -63z"/>
<path d="M8175 23499 c-267 -24 -715 -121 -715 -154 0 -7 19 -25 43 -40 23
-16 45 -33 49 -39 4 -7 29 -41 57 -76 60 -76 58 -74 95 -125 16 -22 36 -47 43
-55 8 -8 26 -31 41 -51 15 -20 61 -79 102 -130 42 -52 83 -105 92 -119 9 -14
25 -35 37 -47 12 -12 31 -37 44 -55 46 -68 130 -169 147 -178 11 -6 117 -10
244 -10 l225 0 26 28 c14 15 60 72 103 127 42 55 82 104 89 108 7 4 13 13 13
18 0 6 20 34 43 62 24 29 89 111 144 182 54 72 107 139 116 150 8 11 46 58 82
105 38 49 85 97 112 113 32 20 42 32 35 39 -28 28 -354 101 -592 133 -147 20
-528 28 -675 14z"/>
<path d="M9483 23330 c-39 -16 -29 -40 16 -40 46 0 62 17 36 37 -21 15 -22 15
-52 3z"/>
<path d="M7355 23320 c-11 -18 5 -30 39 -30 39 0 50 8 35 27 -13 15 -65 18
-74 3z"/>
<path d="M7185 23261 c-595 -249 -1062 -613 -1449 -1131 -100 -135 -124 -176
-111 -189 6 -5 130 -11 280 -13 l270 -4 135 -58 c74 -32 175 -74 223 -93 49
-19 96 -38 105 -43 10 -4 62 -26 117 -48 163 -65 628 -253 660 -267 100 -44
176 -67 199 -61 24 6 156 147 156 166 0 13 -25 37 -80 78 -76 55 -244 182
-263 198 -10 8 -42 32 -70 52 -49 35 -92 66 -275 206 -42 33 -89 78 -104 100
-43 66 -195 279 -217 304 -20 23 -169 139 -221 173 -14 9 -45 35 -70 58 -41
38 -42 41 -13 27 29 -15 84 -56 257 -195 38 -30 79 -71 91 -91 13 -19 51 -73
84 -120 34 -47 78 -109 98 -139 35 -50 77 -86 255 -218 21 -16 66 -49 100 -75
35 -26 108 -80 163 -121 55 -41 137 -102 183 -135 47 -36 93 -62 107 -62 23 0
79 51 135 123 28 36 22 58 -34 126 -24 29 -46 65 -49 80 -3 14 -1 76 3 136 5
61 9 124 9 142 1 27 9 36 69 75 37 23 72 45 77 48 6 3 31 20 57 38 26 17 51
32 56 32 15 0 52 45 52 64 0 14 -142 208 -199 271 -10 11 -29 36 -42 55 -13
19 -58 78 -100 130 -41 52 -86 111 -99 130 -13 19 -31 43 -39 52 -9 10 -24 28
-33 40 -56 75 -111 139 -127 147 -9 5 -57 13 -107 16 -49 4 -99 13 -111 21
-29 18 -23 19 -128 -25z"/>
<path d="M9585 23286 c-11 -7 -62 -16 -114 -20 -52 -4 -102 -13 -112 -19 -10
-7 -38 -40 -63 -73 -25 -32 -51 -66 -59 -74 -8 -8 -33 -42 -57 -75 -24 -33
-62 -83 -85 -110 -22 -28 -51 -66 -65 -85 -14 -18 -50 -65 -81 -104 -157 -201
-219 -286 -219 -304 0 -21 28 -48 80 -76 19 -11 37 -22 40 -26 3 -3 44 -31 92
-61 48 -30 90 -60 93 -68 3 -8 8 -83 12 -168 l6 -154 -30 -32 c-50 -54 -73
-89 -73 -111 0 -13 27 -53 63 -93 71 -82 94 -89 150 -45 152 116 338 252 346
252 5 0 11 4 13 8 2 4 73 60 158 124 160 120 194 149 220 188 8 13 29 41 45
64 17 23 51 70 75 105 25 35 59 84 76 108 26 37 90 93 194 168 15 11 58 44 95
73 65 50 85 61 85 45 -1 -8 -114 -94 -134 -102 -6 -2 -17 -10 -24 -17 -7 -7
-48 -40 -91 -74 -75 -58 -93 -80 -244 -295 -16 -22 -40 -58 -54 -81 -17 -26
-66 -70 -135 -120 -60 -43 -121 -89 -136 -101 -26 -21 -75 -58 -226 -171 -39
-28 -79 -59 -88 -67 -10 -8 -37 -27 -60 -42 -24 -15 -47 -32 -53 -38 -5 -5
-29 -25 -52 -43 -24 -19 -43 -41 -43 -50 0 -10 23 -41 50 -71 28 -29 50 -57
50 -60 0 -10 56 -41 74 -41 9 0 66 21 128 46 62 25 145 58 183 73 287 115 383
153 400 160 11 5 40 18 65 29 111 48 400 162 412 162 18 0 -2 -16 -37 -28 -16
-6 -79 -31 -140 -57 -60 -26 -150 -62 -200 -81 -49 -20 -108 -44 -130 -54 -36
-16 -171 -71 -455 -186 -47 -19 -98 -41 -115 -49 -16 -7 -49 -21 -73 -30 -23
-10 -47 -26 -52 -36 -6 -10 -10 -99 -10 -199 0 -231 -2 -229 162 -105 37 27
83 61 103 75 20 14 49 35 65 48 15 12 33 22 39 22 6 0 11 3 11 8 0 4 12 15 28
24 15 10 50 34 78 55 48 35 130 94 494 352 74 53 168 119 209 147 90 61 103
78 77 97 -22 16 -24 16 85 63 l84 37 275 4 c276 4 300 6 300 21 0 26 -179 267
-311 417 -281 321 -626 587 -1015 784 -106 53 -331 151 -349 151 -6 0 -19 -6
-30 -14z"/>
<path d="M8225 22380 c-16 -18 -115 -280 -115 -306 0 -21 61 -68 231 -178 57
-36 98 -46 100 -23 4 93 -5 495 -12 509 -8 15 -23 18 -98 18 -75 0 -91 -3
-106 -20z"/>
<path d="M8461 22378 c-4 -13 -5 -131 -2 -262 5 -207 8 -240 22 -249 14 -8 36
2 107 51 50 34 93 62 96 62 7 0 42 28 79 63 20 19 27 33 22 45 -4 9 -26 71
-49 138 -23 66 -49 133 -59 147 -17 26 -20 27 -112 27 -90 0 -96 -1 -104 -22z"/>
<path d="M8061 22309 c-40 -27 -78 -49 -82 -49 -5 0 -9 -4 -9 -8 0 -5 -12 -14
-26 -20 -41 -19 -28 -50 41 -99 67 -46 99 -53 115 -23 21 39 81 231 75 240
-12 19 -40 9 -114 -41z"/>
<path d="M8723 22333 c6 -33 62 -195 77 -223 13 -25 43 -25 78 -2 15 11 44 30
65 43 64 41 51 56 -147 182 -24 15 -51 27 -61 27 -13 0 -16 -6 -12 -27z"/>
<path d="M7882 22147 c-6 -6 -12 -71 -14 -142 l-3 -131 39 -47 c30 -36 45 -47
63 -45 20 3 29 18 63 118 22 63 40 122 40 131 0 19 -40 56 -106 97 -56 35 -67
38 -82 19z"/>
<path d="M8910 22114 c-36 -24 -69 -53 -74 -64 -7 -14 2 -52 29 -136 22 -63
44 -122 50 -130 16 -22 41 -8 81 44 l34 45 0 118 c0 127 -9 169 -37 168 -10 0
-47 -20 -83 -45z"/>
<path d="M8086 21998 c-9 -12 -25 -52 -37 -88 -12 -36 -25 -69 -30 -74 -14
-15 -10 -73 4 -79 17 -7 339 51 351 63 4 4 4 15 -1 25 -11 19 -242 175 -260
175 -6 0 -19 -10 -27 -22z"/>
<path d="M8647 21939 c-116 -79 -139 -101 -120 -120 11 -11 334 -71 351 -64
19 7 15 34 -18 124 -41 112 -57 141 -78 140 -9 0 -70 -36 -135 -80z"/>
<path d="M10560 21773 c-52 -36 -116 -82 -142 -102 -25 -20 -79 -58 -118 -86
-40 -27 -119 -84 -176 -125 -57 -41 -127 -92 -156 -112 -29 -20 -84 -60 -123
-88 -80 -59 -254 -182 -400 -283 -55 -38 -103 -74 -107 -80 -8 -13 9 -47 23
-47 6 0 25 -7 42 -15 18 -8 97 -39 177 -70 80 -30 153 -60 162 -65 10 -6 23
-10 29 -10 7 0 30 -9 53 -19 23 -10 119 -49 215 -86 130 -51 178 -65 190 -58
15 9 76 165 149 378 17 50 51 149 77 220 26 72 51 147 57 168 6 20 14 37 18
37 11 0 -4 -58 -40 -160 -17 -47 -55 -155 -84 -240 -30 -85 -71 -201 -91 -258
-20 -56 -35 -115 -33 -130 l3 -27 155 3 c193 4 642 28 688 38 28 6 28 21 -2
114 -91 286 -146 458 -196 610 -32 96 -84 255 -115 353 -32 98 -64 181 -71
184 -8 3 -20 0 -28 -6 -11 -9 -15 -7 -19 9 -8 32 -36 23 -137 -47z m116 -54
c-15 -34 -15 -34 -9 -4 7 35 13 48 20 42 2 -3 -3 -20 -11 -38z m-66 -201 c-28
-84 -56 -157 -61 -163 -14 -14 1 52 23 103 10 24 18 47 18 52 0 16 62 171 67
166 3 -2 -18 -74 -47 -158z"/>
<path d="M6344 21808 c-9 -14 32 -50 131 -116 39 -26 106 -73 150 -105 44 -32
91 -66 105 -75 26 -17 157 -111 175 -124 6 -5 98 -70 205 -146 107 -77 255
-183 329 -236 87 -62 142 -96 155 -94 20 3 21 10 24 178 2 112 -2 184 -9 202
-8 19 -27 33 -72 52 -34 13 -129 52 -212 86 -232 95 -515 210 -570 232 -27 10
-74 30 -102 43 -29 14 -94 40 -145 60 -51 19 -101 39 -110 45 -24 13 -45 13
-54 -2z"/>
<path d="M12174 21778 c-21 -24 -68 -74 -103 -113 -35 -38 -81 -88 -101 -110
-96 -106 -297 -323 -324 -350 -16 -16 -47 -52 -68 -79 -54 -68 -38 -81 45 -39
34 18 125 62 202 98 243 113 233 107 268 200 26 69 69 179 82 210 38 86 76
205 71 214 -13 20 -32 11 -72 -31z"/>
<path d="M8335 21789 c-16 -5 -86 -18 -155 -29 -69 -12 -142 -27 -162 -35 -38
-15 -91 -64 -194 -181 -34 -38 -85 -95 -113 -127 -63 -70 -65 -64 74 -212 101
-108 123 -135 108 -135 -5 0 -55 52 -113 115 -58 63 -110 115 -117 115 -6 0
-15 -6 -20 -12 -8 -14 -5 -382 3 -411 3 -10 42 -71 86 -135 44 -64 96 -141
115 -169 48 -71 75 -70 101 2 6 17 31 80 56 140 65 156 63 168 -41 276 -29 29
-53 58 -53 64 0 5 31 -23 68 -62 37 -40 75 -73 85 -73 19 0 48 57 107 210 18
47 40 103 50 125 9 22 27 67 39 100 13 33 36 90 52 126 16 36 29 69 29 73 0 3
19 54 42 113 39 101 40 106 23 119 -21 16 -28 16 -70 3z"/>
<path d="M8498 21793 c-10 -2 -18 -10 -18 -18 0 -18 88 -250 145 -380 7 -16
50 -124 95 -240 45 -115 86 -216 92 -222 18 -22 38 -15 71 23 18 21 48 53 67
73 19 20 71 76 115 125 44 50 99 110 122 135 46 50 53 78 26 102 -10 9 -76 80
-148 158 -71 78 -141 151 -157 162 -18 14 -80 29 -195 48 -92 16 -175 31 -183
34 -8 2 -23 3 -32 0z"/>
<path d="M8395 21648 c-10 -24 -29 -67 -42 -97 -12 -29 -23 -58 -23 -64 0 -5
-16 -49 -36 -96 -122 -288 -194 -476 -194 -504 0 -25 36 -68 183 -223 36 -38
75 -81 87 -96 22 -29 58 -37 65 -15 6 20 15 1107 8 1123 -10 26 -30 14 -48
-28z"/>
<path d="M8467 21623 c-8 -41 -9 -1046 -1 -1066 9 -24 39 -21 61 7 10 13 75
87 146 165 70 78 127 148 127 156 0 13 -113 307 -146 382 -8 17 -41 101 -74
185 -81 204 -78 198 -94 198 -7 0 -16 -12 -19 -27z"/>
<path d="M9170 21242 c-30 -32 -94 -101 -141 -152 -48 -52 -108 -117 -133
-145 -26 -27 -49 -59 -52 -71 -3 -12 19 -81 54 -170 33 -82 62 -157 65 -166 9
-26 51 -23 66 5 6 12 25 40 41 62 17 22 47 65 66 95 20 30 51 73 68 95 54 67
57 82 54 300 -3 235 -5 237 -88 147z"/>
<path d="M11562 21036 c-118 -61 -141 -80 -174 -144 -57 -109 -192 -338 -206
-349 -9 -8 -44 -13 -81 -13 -36 0 -244 -9 -462 -21 l-395 -21 -95 35 c-51 20
-155 60 -229 90 -74 29 -166 66 -205 80 -38 15 -144 56 -234 92 -90 36 -178
65 -195 65 -27 -1 -36 -9 -68 -58 -20 -31 -71 -106 -112 -166 -42 -60 -76
-116 -76 -123 0 -19 33 -29 167 -53 242 -43 562 -100 678 -120 148 -26 165
-32 191 -73 17 -25 153 -202 202 -262 9 -11 63 -80 219 -283 46 -59 115 -149
155 -200 40 -51 83 -107 96 -125 13 -18 33 -43 45 -57 12 -14 43 -52 68 -86
25 -33 53 -69 62 -80 9 -10 40 -49 69 -86 29 -38 73 -93 97 -123 49 -63 50
-83 3 -128 l-29 -28 -59 73 c-33 40 -79 99 -104 131 -25 32 -69 88 -97 125
-29 37 -84 108 -123 157 -86 112 -98 126 -239 305 -63 80 -135 171 -160 204
-25 32 -64 82 -86 110 -23 28 -73 93 -113 145 -40 51 -82 101 -95 111 -14 11
-49 20 -92 25 -88 8 -409 42 -535 56 -52 5 -102 12 -111 15 -8 2 -23 -2 -34
-9 -18 -14 -17 -14 1 -31 10 -10 109 -76 219 -148 379 -246 365 -235 412 -313
24 -38 46 -77 50 -85 15 -28 96 -165 145 -242 26 -42 48 -80 48 -83 0 -3 16
-32 37 -63 20 -31 65 -106 100 -167 35 -60 68 -117 73 -125 34 -54 51 -98 70
-176 11 -49 25 -107 30 -129 36 -150 108 -471 135 -603 14 -69 14 -67 -75
-277 -21 -49 -68 -162 -105 -250 -68 -164 -95 -227 -101 -233 -7 -9 -105 55
-110 71 -5 17 19 69 192 404 56 107 84 172 84 194 0 19 -16 90 -35 159 -19 69
-59 217 -90 330 -30 113 -62 228 -70 256 -8 28 -15 56 -15 62 0 7 -21 46 -47
87 -92 143 -257 401 -312 487 -31 47 -83 131 -116 184 -70 115 -113 161 -215
229 -41 27 -124 85 -183 128 -101 73 -137 88 -137 55 0 -14 25 -90 40 -123 15
-35 56 -136 122 -300 71 -181 69 -161 49 -470 -26 -392 -34 -481 -44 -497 -28
-39 -507 -675 -521 -690 -14 -16 -49 -17 -386 -18 l-371 0 -22 24 c-12 13 -43
52 -69 87 -26 35 -96 129 -155 209 -60 80 -116 156 -126 170 -9 14 -52 72 -96
129 -89 118 -79 77 -100 391 -21 293 -21 294 -10 283 6 -6 17 -113 25 -245 19
-331 14 -303 73 -383 75 -102 160 -216 246 -330 42 -55 98 -131 125 -169 28
-38 59 -75 69 -83 17 -12 22 -11 35 9 9 12 16 36 17 53 1 16 5 41 10 55 6 17
7 5 3 -35 -3 -33 -6 -73 -5 -89 1 -54 11 -57 165 -54 137 3 141 4 141 24 0 29
-205 351 -229 360 -27 9 -34 -4 -50 -96 -15 -84 -15 -84 -11 -20 3 36 8 94 11
130 6 72 5 76 -90 221 -26 41 -65 99 -85 130 -20 30 -74 115 -121 188 -47 72
-117 180 -155 239 -39 59 -83 128 -98 153 -42 74 -72 72 -79 -6 -2 -26 -6 -6
-11 56 -9 95 -8 96 28 190 21 52 42 99 48 104 13 13 7 -8 -28 -103 -15 -40
-24 -79 -21 -87 5 -13 60 -15 369 -15 275 0 367 3 379 13 15 11 51 214 79 442
19 149 50 382 59 435 22 128 24 192 7 205 -11 8 -77 10 -234 7 -255 -4 -252
-3 -289 -102 -14 -36 -34 -87 -45 -115 -11 -27 -36 -93 -55 -145 -20 -52 -41
-108 -48 -125 -7 -16 -21 -50 -31 -75 -9 -25 -25 -65 -35 -90 -10 -25 -31 -76
-45 -115 -15 -38 -31 -81 -36 -94 -5 -13 -12 -21 -15 -18 -6 5 41 141 76 222
47 110 62 154 57 169 -8 20 -27 20 -52 1 -42 -32 -145 -105 -149 -105 -3 0
-33 -21 -68 -47 -35 -27 -86 -63 -113 -81 -28 -19 -60 -48 -73 -65 -30 -42
-229 -350 -358 -557 -36 -58 -69 -107 -73 -110 -5 -3 -15 -18 -24 -35 -22 -40
-46 -70 -51 -64 -3 2 7 23 22 45 15 22 61 93 102 158 41 65 102 160 135 210
33 51 80 125 105 165 25 40 64 102 87 138 57 87 57 86 -14 141 -62 49 -74 42
-138 -79 -9 -17 -25 -26 -25 -14 0 5 42 82 70 127 9 14 49 49 90 76 41 27 116
76 165 109 50 33 95 62 100 64 6 2 51 31 100 63 50 33 107 71 128 84 36 24 46
45 27 57 -5 3 -45 1 -87 -5 -43 -6 -141 -17 -218 -25 -364 -38 -432 -46 -457
-56 -16 -7 -61 -54 -103 -108 -41 -53 -81 -103 -88 -111 -8 -8 -38 -46 -67
-85 -64 -83 -312 -398 -320 -405 -3 -3 -39 -49 -80 -104 -41 -54 -95 -124
-120 -156 -58 -74 -190 -244 -258 -331 -29 -38 -58 -66 -65 -64 -17 7 -57 68
-57 87 0 8 39 64 86 124 47 60 105 133 127 162 23 30 49 62 58 72 8 10 42 53
75 96 52 68 150 192 218 279 14 17 41 52 62 79 20 28 41 55 45 60 28 35 79
100 109 141 19 25 55 72 81 103 25 31 83 107 128 167 46 61 89 113 96 117 19
11 335 72 640 123 350 59 372 66 357 104 -6 15 -90 141 -102 151 -3 3 -18 25
-34 50 -16 25 -44 64 -63 88 -42 51 -67 54 -150 16 -32 -14 -95 -39 -139 -55
-45 -15 -108 -40 -140 -55 -33 -14 -97 -39 -144 -56 -47 -16 -103 -38 -125
-47 -22 -10 -67 -28 -100 -40 -62 -24 -67 -26 -150 -61 -44 -19 -62 -20 -155
-15 -206 11 -498 25 -660 31 -91 4 -172 10 -181 15 -9 5 -65 95 -124 201 -59
106 -116 203 -127 214 -11 12 -49 37 -86 55 -37 18 -74 39 -82 46 -9 7 -31 14
-50 15 -32 3 -35 0 -48 -37 -23 -66 -70 -283 -86 -395 -77 -527 -32 -1069 129
-1545 77 -228 91 -263 168 -420 112 -226 194 -363 333 -550 94 -127 286 -347
365 -419 30 -27 79 -72 109 -100 333 -307 853 -592 1310 -717 622 -170 1205
-172 1830 -5 232 63 620 227 808 343 231 142 369 245 537 398 233 214 391 397
549 635 311 468 489 953 552 1505 21 189 21 545 -1 735 -27 237 -104 591 -129
589 -6 0 -57 -24 -114 -53z m-4572 -1433 c-17 -32 -60 -105 -95 -163 -35 -58
-74 -121 -85 -140 -22 -38 -26 -44 -81 -135 -83 -135 -129 -221 -129 -238 0
-21 54 -47 100 -47 l31 0 -17 -32 c-9 -18 -30 -82 -45 -143 -16 -60 -39 -148
-52 -195 -14 -47 -30 -107 -37 -135 -7 -27 -33 -122 -56 -209 -24 -88 -44
-167 -44 -177 0 -17 226 -470 272 -546 11 -18 17 -41 14 -50 -7 -22 -90 -67
-109 -60 -8 3 -26 34 -40 69 -64 158 -150 367 -167 403 -9 22 -34 80 -55 128
l-38 89 17 76 c28 124 77 334 86 367 5 17 18 73 29 125 76 349 61 304 167 482
53 90 107 179 120 199 13 19 24 39 24 43 0 4 6 14 13 21 6 8 53 84 102 169 50
86 93 156 98 156 4 0 -7 -26 -23 -57z"/>
<path d="M6572 18868 c-7 -7 -12 -18 -12 -26 0 -12 -13 -69 -55 -247 -32 -135
-64 -276 -85 -370 -12 -55 -26 -112 -32 -127 -13 -35 -3 -62 27 -76 38 -17 57
9 84 113 13 50 34 128 48 175 20 70 81 292 123 450 17 64 13 88 -20 105 -35
18 -62 19 -78 3z"/>
<path d="M6417 17983 c-12 -11 -8 -53 7 -81 7 -15 24 -52 36 -82 13 -30 34
-79 47 -108 13 -29 38 -87 54 -129 17 -42 35 -84 39 -92 5 -9 20 -42 35 -73
17 -39 31 -58 43 -58 23 0 62 28 62 45 0 13 -120 260 -229 469 -55 108 -74
130 -94 109z"/>
<path d="M8056 20798 c-8 -18 -24 -58 -36 -88 -12 -30 -26 -63 -31 -72 -5 -10
-9 -23 -9 -28 0 -6 -9 -30 -20 -52 -23 -47 -25 -64 -9 -73 16 -10 422 -6 432
4 15 15 -2 44 -64 111 -33 36 -95 102 -136 148 -44 47 -83 82 -94 82 -12 0
-24 -12 -33 -32z"/>
<path d="M8748 20783 c-212 -226 -251 -274 -232 -293 7 -7 323 -15 423 -11 19
1 10 49 -32 158 -49 126 -80 187 -99 191 -8 2 -35 -19 -60 -45z"/>
<path d="M8488 20450 c-17 -14 -17 -22 6 -180 22 -153 49 -339 81 -570 41
-291 45 -315 61 -327 13 -9 102 -11 368 -7 193 3 357 7 364 10 16 5 15 36 -2
76 -8 18 -33 80 -55 138 -22 58 -64 164 -92 235 -28 72 -64 164 -79 205 -16
41 -47 120 -69 175 -23 54 -41 103 -41 108 0 4 -8 27 -19 50 -10 23 -21 50
-24 60 -11 30 -49 36 -268 39 -178 2 -216 1 -231 -12z"/>
<path d="M7745 20443 c-44 -8 -150 -28 -235 -44 -85 -17 -204 -39 -265 -49
-355 -60 -345 -57 -345 -93 0 -13 9 -32 20 -42 17 -15 31 -17 107 -11 49 4
115 11 148 16 33 5 152 18 265 30 295 29 382 42 400 60 8 8 24 41 35 73 28 83
20 87 -130 60z"/>
<path d="M9017 20453 c-14 -13 -5 -60 21 -107 l27 -50 90 -12 c50 -7 200 -24
335 -39 304 -32 397 -43 432 -51 21 -4 33 1 53 20 31 31 32 63 3 76 -13 5 -66
16 -118 24 -98 15 -332 58 -455 82 -38 8 -113 21 -165 29 -52 8 -119 19 -149
25 -63 12 -66 12 -74 3z"/>
<path d="M8431 20312 c-5 -9 -12 -46 -15 -82 -7 -70 -38 -290 -61 -435 -8 -49
-19 -128 -25 -175 -5 -47 -15 -118 -21 -157 -16 -102 -15 -103 131 -103 65 0
125 3 134 6 27 10 21 68 -49 539 -21 146 -55 390 -55 402 0 19 -29 23 -39 5z"/>
<path d="M6798 20183 c-24 -32 -50 -65 -58 -74 -8 -9 -32 -38 -52 -65 -21 -27
-72 -94 -115 -150 -43 -56 -89 -116 -103 -135 -14 -18 -41 -52 -61 -74 -19
-22 -53 -65 -74 -94 -22 -30 -71 -94 -110 -142 -38 -48 -95 -120 -125 -159
-30 -40 -63 -81 -72 -93 -10 -11 -18 -23 -18 -26 0 -3 -10 -17 -23 -31 -42
-46 -187 -243 -187 -255 0 -17 22 -35 43 -35 18 0 42 24 99 99 15 20 42 55 60
78 18 23 74 95 125 160 50 65 113 146 140 180 26 34 99 128 162 210 63 81 117
150 121 153 3 3 35 43 70 90 36 46 72 94 81 105 9 11 36 45 60 75 150 189 153
194 123 224 -26 26 -41 19 -86 -41z"/>
<path d="M7584 20123 c-99 -65 -187 -122 -196 -128 -105 -66 -220 -148 -225
-161 -8 -22 74 -94 107 -94 14 0 41 13 60 29 19 15 67 49 105 75 190 127 291
200 317 231 9 11 22 39 29 63 6 23 16 45 20 48 5 3 9 16 9 30 0 44 -40 27
-226 -93z"/>
<path d="M9090 20223 c0 -33 45 -136 71 -163 15 -14 67 -54 115 -88 49 -33
136 -95 194 -137 58 -41 115 -80 127 -86 29 -15 61 -6 101 30 37 33 40 66 8
85 -21 13 -215 138 -372 241 -218 143 -244 156 -244 118z"/>
<path d="M10012 20228 c-23 -23 -11 -54 51 -133 68 -87 125 -161 232 -300 38
-49 72 -92 75 -95 4 -3 49 -60 101 -128 116 -153 172 -224 227 -293 24 -30 54
-67 67 -84 12 -16 59 -77 104 -135 45 -58 91 -118 104 -134 53 -70 75 -88 97
-76 21 11 28 64 10 75 -15 10 -130 163 -130 174 0 5 -4 11 -9 13 -11 4 -102
114 -149 180 -20 29 -47 64 -59 78 -20 23 -147 185 -203 260 -14 18 -32 41
-40 51 -8 10 -40 50 -70 89 -63 81 -295 376 -341 433 -32 39 -47 45 -67 25z"/>
<path d="M9712 19769 c-75 -55 -84 -30 160 -407 40 -62 80 -124 88 -137 128
-204 217 -338 227 -342 33 -13 113 20 113 46 0 4 -17 36 -38 72 -22 35 -85
143 -142 239 -293 497 -333 560 -353 560 -7 0 -32 -14 -55 -31z"/>
<path d="M7850 19340 l-295 -5 -3 -25 c-2 -17 9 -41 31 -71 19 -25 43 -60 54
-79 10 -19 49 -82 87 -140 38 -58 88 -134 111 -170 23 -36 49 -76 58 -90 9
-14 32 -47 51 -75 44 -65 118 -181 142 -223 24 -41 55 -40 65 3 4 17 17 100
29 185 11 85 32 238 46 340 14 102 30 217 35 255 9 65 8 71 -12 88 -14 11 -35
16 -63 15 -22 -2 -174 -5 -336 -8z"/>
<path d="M8309 19331 c-20 -16 -25 -45 -65 -316 -8 -60 -19 -141 -24 -180 -5
-38 -16 -119 -25 -180 -9 -60 -21 -151 -27 -202 l-11 -92 42 -68 c70 -114 206
-321 225 -342 10 -11 24 -17 31 -15 13 5 109 143 135 194 7 14 16 27 19 30 11
10 68 95 100 152 l31 56 -15 109 c-77 551 -104 746 -110 791 -10 76 -25 83
-170 81 -90 -2 -121 -6 -136 -18z"/>
<path d="M8640 19335 c-11 -13 -8 -52 14 -213 15 -108 33 -237 41 -287 8 -49
24 -156 34 -238 11 -81 23 -152 26 -157 14 -23 35 -4 104 103 41 61 113 169
160 239 47 70 93 140 101 155 8 16 31 53 51 83 20 30 65 100 101 155 82 126
91 143 84 161 -8 22 -698 21 -716 -1z"/>
<path d="M9357 19269 c-9 -6 -27 -28 -40 -51 -26 -48 -24 -44 -112 -178 -38
-58 -74 -112 -80 -122 -13 -21 -109 -170 -246 -383 -126 -196 -123 -185 -89
-388 11 -65 20 -131 20 -146 0 -15 7 -36 15 -47 15 -18 16 -18 46 16 29 33
410 539 458 608 19 27 24 52 31 165 26 373 33 518 24 527 -5 5 -16 5 -27 -1z"/>
<path d="M10248 18869 c-14 -6 -29 -17 -32 -26 -4 -8 9 -68 28 -132 19 -64 37
-132 41 -151 4 -19 26 -102 50 -185 23 -82 53 -192 66 -244 18 -70 30 -97 47
-109 20 -13 24 -13 43 4 15 13 19 27 16 49 -4 32 -51 240 -91 410 -13 55 -36
154 -51 220 -38 169 -38 170 -66 172 -13 1 -36 -3 -51 -8z"/>
<path d="M8643 18173 c-135 -209 -155 -243 -151 -260 3 -16 19 -18 144 -21
116 -2 143 0 154 13 10 12 8 47 -9 179 -12 91 -24 172 -27 180 -14 38 -43 14
-111 -91z"/>
<path d="M10442 17977 c-21 -25 -282 -552 -282 -569 0 -20 36 -48 62 -48 10 0
23 14 31 33 15 33 63 147 115 272 16 39 51 120 77 182 26 62 45 119 42 128 -8
18 -31 20 -45 2z"/>
<path d="M12847 13772 c-48 -130 -87 -240 -87 -244 0 -5 83 -8 185 -8 142 0
185 3 185 13 -1 22 -177 471 -186 474 -5 1 -49 -104 -97 -235z"/>
<path d="M8570 11080 c0 -7 -6 -26 -14 -43 -8 -18 -56 -131 -106 -252 -50
-121 -95 -229 -100 -240 -4 -11 -20 -46 -34 -79 -14 -32 -26 -60 -26 -62 0 -2
135 -4 300 -4 165 0 300 2 300 5 0 2 -67 156 -150 342 -132 300 -170 374 -170
333z"/>
</g>
</svg>
